<svg xmlns="http://www.w3.org/2000/svg" viewBox="0 0 69.692 72.86">
  <defs>
    <style>
      .cls-1 {
        fill: #fff;
      }
    </style>
  </defs>
  <path id="Gift-icon" class="cls-1" d="M51.635,22.175c2.217-1.267,4.435-2.217,5.385-3.168a10.507,10.507,0,0,0,3.168-7.92,12.5,12.5,0,0,0-3.168-7.92C55.12.95,52.269,0,49.1,0h0a12.5,12.5,0,0,0-7.92,3.168c-1.9,1.9-4.435,7.6-6.336,12.671-1.9-5.069-4.435-10.771-6.336-12.671a11.7,11.7,0,0,0-15.839,0,11.7,11.7,0,0,0,0,15.839c.95.95,3.168,1.9,5.385,3.168H0V72.86H69.692V22.175ZM63.356,44.349H38.014V28.51H63.356ZM45.617,7.6A6.643,6.643,0,0,1,49.1,6.336,6.643,6.643,0,0,1,52.586,7.6a6.643,6.643,0,0,1,1.267,3.485,6.643,6.643,0,0,1-1.267,3.485c-1.267,1.267-6.652,3.485-12.354,5.7C42.132,14.255,44.666,8.87,45.617,7.6ZM15.839,11.087A6.643,6.643,0,0,1,17.106,7.6a6.643,6.643,0,0,1,3.485-1.267h0A6.643,6.643,0,0,1,24.075,7.6c1.267,1.267,3.485,6.652,5.7,12.354-6.019-1.9-11.4-4.435-12.671-5.385A6.643,6.643,0,0,1,15.839,11.087ZM31.678,28.51V44.349H6.336V28.51ZM6.336,50.685H31.678V66.524H6.336ZM38.014,66.524V50.685H63.356V66.524Z" transform="translate(0 0)"/>
</svg>
