<svg xmlns="http://www.w3.org/2000/svg" viewBox="0 0 75.151 52.027">
  <defs>
    <style>
      .cls-1 {
        fill: #fff;
      }
    </style>
  </defs>
  <g id="Group_100" data-name="Group 100" transform="translate(0 0)">
    <g id="Group_99" data-name="Group 99">
      <path id="Path_60" data-name="Path 60" class="cls-1" d="M0,0V52.027H75.151V0ZM69.37,46.247H44.512A20.518,20.518,0,0,1,37.575,47.4a9.833,9.833,0,0,1-2.89-.289c-1.156-.289-2.6-.578-3.758-.867H5.781V8.382L18.5,16.764a24.962,24.962,0,0,1,2.89-4.625l.289-.289-9.249-6.07h18.5a24.843,24.843,0,0,1,6.937-1.156,15.555,15.555,0,0,1,6.359,1.156H63.011l-9.249,6.07a28.638,28.638,0,0,1,3.179,4.914L69.37,8.382Z"/>
    </g>
    <path id="Path_61" data-name="Path 61" class="cls-1" d="M26.788,11.46v.578a8.44,8.44,0,0,0-2.6-.578,7.652,7.652,0,0,0-7.515,7.515v4.336a7.652,7.652,0,0,0,7.515,7.515A7.849,7.849,0,0,0,29.1,29.092a6.564,6.564,0,0,0,4.625,1.734A9.746,9.746,0,0,0,43.553,21v-.578A18.659,18.659,0,0,0,25.343,2.5a18.531,18.531,0,0,0-18.5,21.389,18.091,18.091,0,0,0,15.608,15.03c.867,0,1.734.289,2.6.289A19.93,19.93,0,0,0,34.3,36.9l.867-.578-2.89-4.047-.867.289c-2.6.867-6.07,1.734-8.382,1.445-5.781-1.156-10.405-5.492-11.273-10.984a12.889,12.889,0,0,1,3.179-10.405A13.992,13.992,0,0,1,25.343,7.992,13.589,13.589,0,0,1,38.639,21v.578A4.565,4.565,0,0,1,34.014,26.2a1.865,1.865,0,0,1-1.734-1.734V11.46Zm0,7.8V23.6a2.6,2.6,0,1,1-5.2,0V19.264a2.6,2.6,0,1,1,5.2,0Z" transform="translate(12.521 4.726)"/>
  </g>
</svg>
