<svg xmlns="http://www.w3.org/2000/svg" width="72.608" height="69.583" viewBox="0 0 72.608 69.583">
  <path id="Path_32" data-name="Path 32" d="M72.608,12.1H56.876A8.877,8.877,0,0,0,48.405,0c-5.446,0-9.681,4.538-12.1,8.773C33.884,4.538,29.648,0,24.2,0a8.877,8.877,0,0,0-8.471,12.1H0V30.253H3.025V69.583H69.582V30.253h3.025Zm-24.2-6.051A2.858,2.858,0,0,1,51.43,9.076,2.858,2.858,0,0,1,48.405,12.1H41.144C43.262,9.076,45.985,6.051,48.405,6.051ZM21.177,9.076A2.858,2.858,0,0,1,24.2,6.051c2.42,0,5.143,3.025,7.261,6.051H24.2A2.858,2.858,0,0,1,21.177,9.076ZM6.051,18.152H66.557V24.2H39.329V21.177H33.278V24.2H6.051Zm57.481,45.38h-24.2V33.279H33.278V63.532H9.076V30.253H63.532Z" fill="#ef6433"/>
</svg>
