<svg id="Group_73" data-name="Group 73" xmlns="http://www.w3.org/2000/svg" width="55.843" height="63.458" viewBox="0 0 55.843 63.458">
  <path id="Path_28" data-name="Path 28" d="M41.375,17.768A27.644,27.644,0,0,0,45.69,15.23a8.419,8.419,0,0,0,2.538-6.346A10.015,10.015,0,0,0,45.69,2.538,8.056,8.056,0,0,0,39.344,0h0A10.015,10.015,0,0,0,33,2.538c-1.523,1.523-3.554,6.092-5.077,10.153C26.4,8.63,24.368,4.061,22.845,2.538a9.373,9.373,0,0,0-12.692,0,9.373,9.373,0,0,0,0,12.692,27.644,27.644,0,0,0,4.315,2.538H0v45.69H55.843V17.768ZM36.552,6.092a5.323,5.323,0,0,1,2.792-1.015,5.323,5.323,0,0,1,2.792,1.015,5.323,5.323,0,0,1,1.015,2.792,5.323,5.323,0,0,1-1.015,2.792c-1.015,1.015-5.331,2.792-9.9,4.569A48.188,48.188,0,0,1,36.552,6.092ZM12.692,8.884a5.323,5.323,0,0,1,1.015-2.792A5.323,5.323,0,0,1,16.5,5.077h0a5.323,5.323,0,0,1,2.792,1.015c1.015,1.015,2.792,5.33,4.569,9.9a48.188,48.188,0,0,1-10.153-4.315A5.323,5.323,0,0,1,12.692,8.884Zm38.075,49.5H5.077V22.845h45.69Z" fill="#fff"/>
  <path id="Path_29" data-name="Path 29" d="M18.692,18.346A6.284,6.284,0,0,0,12.346,12,6.284,6.284,0,0,0,6,18.346c0,6.346,12.692,13.961,12.692,13.961s12.692-7.615,12.692-13.961a6.346,6.346,0,0,0-12.692,0Z" transform="translate(9.23 18.46)" fill="#fff"/>
</svg>
