<svg id="Group_82" data-name="Group 82" xmlns="http://www.w3.org/2000/svg" width="62.315" height="70.812" viewBox="0 0 62.315 70.812">
  <path id="Path_49" data-name="Path 49" d="M46.169,19.827c1.983-1.133,3.965-1.983,4.815-2.832a9.4,9.4,0,0,0,2.832-7.081,11.176,11.176,0,0,0-2.832-7.081A8.989,8.989,0,0,0,43.9,0h0a11.176,11.176,0,0,0-7.081,2.832c-1.7,1.7-3.965,6.8-5.665,11.33-1.7-4.532-3.965-9.63-5.665-11.33a10.459,10.459,0,0,0-14.162,0,10.459,10.459,0,0,0,0,14.162c.85.85,2.832,1.7,4.815,2.832H0V70.812H62.315V19.827ZM40.788,6.8A5.94,5.94,0,0,1,43.9,5.665,5.94,5.94,0,0,1,47.019,6.8a5.94,5.94,0,0,1,1.133,3.116,5.94,5.94,0,0,1-1.133,3.116c-1.133,1.133-5.948,3.116-11.047,5.1C37.672,12.746,39.938,7.931,40.788,6.8ZM14.162,9.914A5.94,5.94,0,0,1,15.3,6.8a5.94,5.94,0,0,1,3.116-1.133h0A5.94,5.94,0,0,1,21.527,6.8c1.133,1.133,3.116,5.948,5.1,11.047-5.382-1.7-10.2-3.965-11.33-4.815A5.94,5.94,0,0,1,14.162,9.914ZM56.65,65.147H5.665V25.492H56.65Z" fill="#ef6433"/>
  <path id="Path_50" data-name="Path 50" d="M20.162,34.66s14.162-8.5,14.162-15.579a7.081,7.081,0,0,0-14.162,0h0A7.012,7.012,0,0,0,13.081,12,7.012,7.012,0,0,0,6,19.081C6,26.162,20.162,34.66,20.162,34.66Z" transform="translate(10.995 21.99)" fill="#ef6433"/>
</svg>
