<svg id="Icon" xmlns="http://www.w3.org/2000/svg" width="84.709" height="60.507" viewBox="0 0 84.709 60.507">
  <path id="Path_37" data-name="Path 37" d="M0,0V60.507H84.709V0ZM78.658,54.456H6.051V6.051H78.658Z" fill="#ef6433"/>
  <path id="Path_38" data-name="Path 38" d="M16,17.051A6.051,6.051,0,1,0,22.051,11,6.068,6.068,0,0,0,16,17.051Zm6.051,0v0Z" transform="translate(32.405 22.279)" fill="#ef6433"/>
  <path id="Path_39" data-name="Path 39" d="M14.051,17.1A6.051,6.051,0,1,0,8,11.051,6.068,6.068,0,0,0,14.051,17.1Zm0-9.076v3.025h0Z" transform="translate(16.203 10.127)" fill="#ef6433"/>
  <path id="Path_40" data-name="Path 40" d="M15.961,40.3,40.768,4H33.508L8.7,40.3Z" transform="translate(17.62 8.101)" fill="#ef6433"/>
</svg>
