<svg id="Group_70" data-name="Group 70" xmlns="http://www.w3.org/2000/svg" width="60.92" height="62.443" viewBox="0 0 60.92 62.443">
  <path id="Path_19" data-name="Path 19" d="M27.645,15.761,20.284,8.4,4.8,24.391l13.961-7.615,7.107,7.869L41.1,8.4Z" transform="translate(7.384 12.922)" fill="#fff"/>
  <path id="Path_20" data-name="Path 20" d="M30.46,0C13.707,0,0,13.2,0,29.191A29.173,29.173,0,0,0,10.153,51.02V62.443l10.915-5.584a30.291,30.291,0,0,0,9.392,1.523c16.753,0,30.46-13.2,30.46-29.191S47.213,0,30.46,0Zm0,53.3a25.786,25.786,0,0,1-8.63-1.523l-1.015-.254L15.23,54.32V48.482l-1.015-.761a23.566,23.566,0,0,1-9.138-18.53c0-13.2,11.423-24.114,25.383-24.114S55.843,15.991,55.843,29.191,44.421,53.3,30.46,53.3Z" fill="#fff"/>
</svg>
