<svg xmlns="http://www.w3.org/2000/svg" width="65.929" height="59.078" viewBox="0 0 65.929 59.078">
  <path id="Path_26" data-name="Path 26" d="M64.486.976A6.545,6.545,0,0,0,58.647.468h0C56.871,1.23,6.1,22.552,4.073,23.567,2.042,24.329-.242,26.105.012,28.9c.508,3.046,3.554,4.315,4.061,4.569l12.438,4.061c1.015,3.3,3.808,12.692,4.569,14.722.254,1.015,1.015,3.554,3.046,4.061a3.838,3.838,0,0,0,3.808-.761l7.107-6.6,11.93,9.138.508.254a6.618,6.618,0,0,0,2.792.761,6.062,6.062,0,0,0,2.285-.508,6.188,6.188,0,0,0,3.3-3.3L65.5,6.56C66.516,3.514,65.5,1.991,64.486.976ZM60.678,5.545,51.286,53.519c0,.254-.254.254-.508.508h-.761L34.787,42.351,25.9,50.727l2.031-12.184S51.54,16.714,52.555,15.7s.762-1.269.762-1.269c0-1.269-1.523-.254-1.523-.254L20.572,33.467h0L5.85,28.39H6.1C24.38,20.775,59.155,6.053,60.678,5.291h.254A.249.249,0,0,1,60.678,5.545Z" transform="translate(0.008 -0.025)" fill="#ef6433"/>
</svg>
