<svg xmlns="http://www.w3.org/2000/svg" width="82.094" height="82" viewBox="0 0 82.094 82">
  <path id="Path_48" data-name="Path 48" d="M79.887,17.977A20.961,20.961,0,0,0,68.218,7.569a18.5,18.5,0,0,0-7.254-1.262,27.678,27.678,0,0,1,3.785,6.623c.315,0,.946.315,1.262.315a14.088,14.088,0,0,1,8.831,17.977C72,39.423,61.91,48.254,55.287,46.992a69.274,69.274,0,0,1-5.677,4.415h.315c-.315.631-.315.946-.631,1.577C47.4,57.4,45.826,60.869,44.564,64.023V49.831C55.6,47.308,63.487,31.854,63.487,21.446A22.3,22.3,0,0,0,41.095,0C29.11,0,19.018,9.777,19.018,21.446c0,10.408,7.885,25.862,18.923,28.385V64.654c-.946-2.208-2.208-4.415-3.469-6.938-.315-.315-.315-.946-.631-1.262.315-.315.631-.315.946-.631V52.038h0a7.518,7.518,0,0,1-3.469-1.892,9.859,9.859,0,0,1-3.469,2.838c-6.623,2.523-17.662-6.938-20.5-15.138a13.923,13.923,0,0,1,8.515-17.977h0a24.758,24.758,0,0,1,1.577-6.938,8.223,8.223,0,0,0-3.469.946A20.591,20.591,0,0,0,1.987,24.285C-.536,29.331-.536,34.692,1.041,40.054,4.51,49.2,15.233,59.923,25.326,59.923a8.732,8.732,0,0,0,2.838-.315c.315.315.631.631.631.946,5.992,12.3,9.146,19.554,9.146,21.446h6.308c.315-1.892,3.785-10.723,10.723-26.492a15.377,15.377,0,0,1,.946-2.208h.946c10.092,0,20.815-11.038,23.969-20.185A18.226,18.226,0,0,0,79.887,17.977ZM25.326,21.446c0-8.2,7.254-15.138,15.769-15.138s15.769,6.938,15.769,15.138c0,8.515-7.254,22.708-15.769,22.708S25.326,29.962,25.326,21.446Z" transform="translate(0.044)" fill="#ef6433"/>
</svg>
