<svg xmlns="http://www.w3.org/2000/svg" width="84.709" height="60.507" viewBox="0 0 84.709 60.507">
  <g id="Icon" transform="translate(0.291 1.051)">
    <path id="Path_30" data-name="Path 30" d="M75.633,0H9.076A8.914,8.914,0,0,0,0,9.076V51.431a8.914,8.914,0,0,0,9.076,9.076H75.633a8.914,8.914,0,0,0,9.076-9.076V9.076A8.914,8.914,0,0,0,75.633,0Zm3.025,27.228h-24.2v6.051h24.2V51.431a2.858,2.858,0,0,1-3.025,3.025H33.278V39.329H27.228V54.456H9.076a2.858,2.858,0,0,1-3.025-3.025V9.076A2.858,2.858,0,0,1,9.076,6.051H27.228v9.076h6.051V6.051H75.633a2.858,2.858,0,0,1,3.025,3.025Z" transform="translate(-0.291 -1.051)" fill="#ef6433"/>
    <path id="Path_31" data-name="Path 31" d="M36.278,5c-5.446,0-9.681,4.538-12.1,8.773C21.757,9.538,17.522,5,12.076,5A8.914,8.914,0,0,0,3,14.076a8.914,8.914,0,0,0,9.076,9.076h1.513a15.384,15.384,0,0,0-4.538,8.471l6.051,1.21c.908-5.748,6.958-8.471,9.076-9.379,2.118.908,8.168,3.933,9.076,9.379l6.051-1.21a15.384,15.384,0,0,0-4.538-8.471h1.513a8.914,8.914,0,0,0,9.076-9.076A8.914,8.914,0,0,0,36.278,5ZM9.051,14.076a2.858,2.858,0,0,1,3.025-3.025c2.42,0,5.143,3.025,7.261,6.051H12.076A2.858,2.858,0,0,1,9.051,14.076ZM36.278,17.1H29.018c1.815-3.025,4.538-6.051,7.261-6.051A2.858,2.858,0,0,1,39.3,14.076,2.858,2.858,0,0,1,36.278,17.1Z" transform="translate(6.076 10.127)" fill="#ef6433"/>
  </g>
</svg>
