<svg id="Group_71" data-name="Group 71" xmlns="http://www.w3.org/2000/svg" width="64.474" height="65.997" viewBox="0 0 64.474 65.997">
  <path id="Path_21" data-name="Path 21" d="M20.392,8A12.568,12.568,0,0,0,7.7,20.692,12.568,12.568,0,0,0,20.392,33.383,12.568,12.568,0,0,0,33.083,20.692,12.729,12.729,0,0,0,20.392,8Zm0,20.307a7.479,7.479,0,0,1-7.615-7.615,7.479,7.479,0,0,1,7.615-7.615,7.479,7.479,0,0,1,7.615,7.615A7.637,7.637,0,0,1,20.392,28.307Z" transform="translate(11.845 12.307)" fill="#ef6433"/>
  <path id="Path_22" data-name="Path 22" d="M57.62,33a21.835,21.835,0,0,0-.254-4.061l7.107-6.346L57.366,10.153l-9.138,3.3a24.634,24.634,0,0,0-7.107-4.061L39.344,0H24.876L23.1,9.138a24.069,24.069,0,0,0-6.854,4.315L7.107,10.407,0,22.591l7.107,6.346A21.835,21.835,0,0,0,6.854,33a21.835,21.835,0,0,0,.254,4.061L0,43.405,7.107,55.843,15.992,52.8A24.634,24.634,0,0,0,23.1,56.859L24.876,66H39.09l1.777-9.138A28.519,28.519,0,0,0,47.975,52.8l8.884,3.046,7.107-12.438L56.859,37.06A11.5,11.5,0,0,0,57.62,33Zm.254,11.422L54.828,49.5l-7.869-2.538-1.015,1.015a23.437,23.437,0,0,1-7.615,4.569l-1.523.508L35.029,60.92H28.937L27.414,52.8l-1.523-.508a18.039,18.039,0,0,1-7.615-4.569l-1.015-1.015L9.392,49.244,6.346,44.167l6.346-5.33-.254-1.523a27.97,27.97,0,0,1-.508-4.569,27.97,27.97,0,0,1,.508-4.569l.254-1.015L6.6,21.576,9.646,16.5l7.869,2.538,1.015-1.015a23.437,23.437,0,0,1,7.615-4.569l1.523-.508,1.523-7.869h6.092L36.806,13.2l1.523.508a17.054,17.054,0,0,1,7.615,4.569l1.015,1.015,7.869-2.538,3.046,5.077-6.092,5.33.254,1.523a27.97,27.97,0,0,1,.508,4.569,27.97,27.97,0,0,1-.508,4.569l-.254,1.523Z" fill="#ef6433"/>
</svg>
