<svg id="Group_72" data-name="Group 72" xmlns="http://www.w3.org/2000/svg" width="71.073" height="50.767" viewBox="0 0 71.073 50.767">
  <path id="Path_23" data-name="Path 23" d="M11.077,24.276l.254-.508h4.823l.254.508v2.031h5.077V23.768L16.407,7.777,15.392,6H11.584L6,23.007v3.3h5.077Zm3.3-5.584H12.854l.762-2.284Z" transform="translate(9.23 9.23)" fill="#fff"/>
  <rect id="Rectangle_48" data-name="Rectangle 48" width="5.077" height="20.307" transform="translate(48.228 15.23)" fill="#fff"/>
  <path id="Path_24" data-name="Path 24" d="M18.077,21.23a7.479,7.479,0,0,0,7.615-7.615A7.479,7.479,0,0,0,18.077,6H13V26.307h5.077Zm0-10.153a2.4,2.4,0,0,1,2.538,2.538,2.4,2.4,0,0,1-2.538,2.538Z" transform="translate(19.998 9.23)" fill="#fff"/>
  <path id="Path_25" data-name="Path 25" d="M0,0V50.767H71.073V0ZM66,45.69H5.077V5.077H66Z" fill="#fff"/>
</svg>
