<svg xmlns="http://www.w3.org/2000/svg" width="90.76" height="45.38" viewBox="0 0 90.76 45.38">
  <path id="Path_36" data-name="Path 36" d="M84.1,29.951a13.476,13.476,0,0,0,3.63-8.773,12.1,12.1,0,1,0-24.2,0,13.476,13.476,0,0,0,3.63,8.773,16.175,16.175,0,0,0-3.933,3.933,25.662,25.662,0,0,0-7.866-7.261,15.742,15.742,0,0,0,5.143-11.5A15.127,15.127,0,1,0,35.7,26.623a20.3,20.3,0,0,0-7.866,7.261A16.175,16.175,0,0,0,23.9,29.951a14.911,14.911,0,0,0,3.328-8.773,12.1,12.1,0,1,0-24.2,0,13.476,13.476,0,0,0,3.63,8.773A15.19,15.19,0,0,0,0,42.355H6.051a8.914,8.914,0,0,1,9.076-9.076A8.914,8.914,0,0,1,24.2,42.355V45.38h6.051a15.127,15.127,0,1,1,30.253,0h6.051V42.355a9.076,9.076,0,1,1,18.152,0h6.051A15.19,15.19,0,0,0,84.1,29.951ZM9.076,21.177a6.051,6.051,0,1,1,6.051,6.051A6.068,6.068,0,0,1,9.076,21.177ZM36.3,15.127a9.076,9.076,0,1,1,18.152,0,9.076,9.076,0,1,1-18.152,0Zm33.278,6.051a6.051,6.051,0,1,1,6.051,6.051A6.068,6.068,0,0,1,69.582,21.177Z" fill="#ef6433"/>
</svg>
