<svg id="Group_78" data-name="Group 78" xmlns="http://www.w3.org/2000/svg" width="62.624" height="80.776" viewBox="0 0 62.624 80.776">
  <path id="Path_33" data-name="Path 33" d="M20.427,5.3A14.98,14.98,0,0,0,5.3,20.427,14.98,14.98,0,0,0,20.427,35.553,14.98,14.98,0,0,0,35.553,20.427,14.98,14.98,0,0,0,20.427,5.3Zm0,24.2a8.914,8.914,0,0,1-9.076-9.076,8.914,8.914,0,0,1,9.076-9.076A8.914,8.914,0,0,1,29.5,20.427,8.914,8.914,0,0,1,20.427,29.5Z" transform="translate(10.734 10.734)" fill="#ef6433"/>
  <path id="Path_34" data-name="Path 34" d="M62.624,31.463l-6.051-6.656,2.118-8.773-8.773-2.723L47.195,4.538,38.119,6.051,31.463,0,24.808,6.051,15.732,4.235l-2.723,8.471L4.235,15.429l1.815,9.076L0,31.161l6.051,6.656L3.933,46.59l8.773,2.723.3,1.21V80.776l18.152-7.261,18.152,7.261V50.523l.3-.605L58.389,47.2l-1.815-8.773Zm-31.463,36-12.1,4.841V57.481l5.143-1.21,6.656,6.051,6.656-6.051,5.446,1.21V72ZM51.128,42.96l-6.353,2.118-2.118,6.353L36.3,49.918l-5.143,4.538L26.32,49.918l-6.656,1.513-.3-1.21v-.605h-.3l-1.513-4.538L11.194,42.96,12.706,36.3,8.168,31.161l4.538-4.841-1.513-6.656,6.353-2.118,2.118-6.353,6.656,1.513,5.143-4.538L36.3,12.706l6.656-1.513,2.118,6.353,6.353,2.42-1.513,6.656,4.538,5.143L49.918,36.3Z" fill="#ef6433"/>
</svg>
