<svg xmlns="http://www.w3.org/2000/svg" width="49.519" height="49.519" viewBox="0 0 49.519 49.519">
  <path id="Path_26" data-name="Path 26" d="M39.2,0c-5.571,0-9.491,1.444-13,4.333a13.536,13.536,0,0,0-9.7,2.063,13.419,13.419,0,0,0-4.952,7.634c-6.4,2.063-9.7,7.634-8.666,14.649A18.605,18.605,0,0,0,0,39.2c0,3.92,1.238,6.809,3.714,8.872a5.136,5.136,0,0,0,3.92,1.444c6.19,0,15.062-8.253,24.553-17.538C42.71,21.458,49.519,14.03,49.519,7.84,49.519,2.889,44.154,0,39.2,0ZM29.3,29.092C24.553,33.838,9.7,48.281,6.6,44.979L6.4,44.773c-1.651-1.238-2.27-3.095-2.27-5.571a16.66,16.66,0,0,1,1.857-7.634,12.383,12.383,0,0,1,5.571,2.476l2.682-3.095a15.6,15.6,0,0,0-7.428-3.508c-.413-3.92,1.238-8.253,6.809-9.7a13.234,13.234,0,0,1,7.221,2.889l2.889-3.095a16.7,16.7,0,0,0-7.84-3.714A9.366,9.366,0,0,1,18.982,9.9a9.443,9.443,0,0,1,4.952-1.651,7.417,7.417,0,0,1,2.27.413h.619a18.455,18.455,0,0,1,5.571,3.92L35.282,9.7A23.977,23.977,0,0,0,30.743,6.19,15.137,15.137,0,0,1,39.2,4.127c2.889,0,6.19,1.651,6.19,3.714C45.392,12.792,36.726,21.458,29.3,29.092Z" fill="#ef6433"/>
</svg>
