<svg xmlns="http://www.w3.org/2000/svg" width="56.589" height="38.026" viewBox="0 0 56.589 38.026">
  <path id="Path_15" data-name="Path 15" d="M56.589,14.6,28.295,0,0,14.6,3.064,16.22V31.358a3.488,3.488,0,0,0-1.8,3.064,3.6,3.6,0,0,0,7.209,0,3.488,3.488,0,0,0-1.8-3.064V18.022l3.6,1.8v9.191c0,5.046,13.877,5.407,18.022,5.407s18.022-.36,18.022-5.407V19.824ZM28.295,4.145,48.66,14.6,45.416,16.22C42.352,12.976,31.9,12.8,28.295,12.8s-14.057.36-17.121,3.424L7.93,14.6ZM42.712,25.411c-4.325-1.622-11.534-1.8-14.418-1.8s-10.092.18-14.418,1.8V18.563C14.958,17.842,20,16.4,28.295,16.4s13.336,1.442,14.418,2.163ZM28.295,30.818c-7.029,0-11.895-1.081-13.7-1.8,1.8-.721,6.668-1.8,13.7-1.8s11.895,1.081,13.7,1.8C40.189,29.917,35.323,30.818,28.295,30.818Z" fill="#d8d8d8"/>
</svg>
