<svg xmlns="http://www.w3.org/2000/svg" width="43.158" height="43.276" viewBox="0 0 43.158 43.276">
  <path id="Path_14" data-name="Path 14" d="M42.495,15.5a9.4,9.4,0,0,0-5.226-5.587,9.629,9.629,0,0,0-5.947-.721A9.71,9.71,0,0,0,21.589,0a9.869,9.869,0,0,0-9.912,9.191A9.6,9.6,0,0,0,.684,15.5,9.9,9.9,0,0,0,5.369,27.754a9.063,9.063,0,0,0-1.622,6.488A9.323,9.323,0,0,0,7.172,40.91a10.534,10.534,0,0,0,7.209,2.343,9.323,9.323,0,0,0,6.668-3.424,2.488,2.488,0,0,0,.541-.721c.18.18.36.541.541.721A9.674,9.674,0,0,0,28.8,43.253h.9a10.09,10.09,0,0,0,6.308-2.343,9.674,9.674,0,0,0,3.424-6.668,9.419,9.419,0,0,0-1.8-6.488,10.294,10.294,0,0,0,4.506-4.686A8.64,8.64,0,0,0,42.495,15.5ZM21.589,3.6A6.385,6.385,0,0,1,27.9,9.912a2.22,2.22,0,0,1-.36,1.262L22.13,18.923a19.633,19.633,0,0,0,1.262-4.506,1.8,1.8,0,1,0-3.6,0c0,.541.541,2.7.9,4.325l-5.226-7.93a1.96,1.96,0,0,1-.18-.9A6.385,6.385,0,0,1,21.589,3.6ZM3.928,16.76a6.257,6.257,0,0,1,8.11-3.6c.18,0,.36.18.721.36L17.8,21.086C16.183,20,14.38,18.923,13.84,18.563a1.825,1.825,0,1,0-1.262,3.424,42.582,42.582,0,0,0,4.686.541L8.253,25.051c-.36,0-.541-.18-.721-.18A6.41,6.41,0,0,1,3.928,16.76ZM18.345,37.486a5.644,5.644,0,0,1-4.325,2.163,6.6,6.6,0,0,1-4.686-1.442,5.644,5.644,0,0,1-2.163-4.325A6.6,6.6,0,0,1,8.613,29.2a6.861,6.861,0,0,1,1.081-.9l.18-.18,8.651-2.343a23.466,23.466,0,0,0-3.965,3.064,1.789,1.789,0,1,0,2.7,2.343c.36-.541,1.622-3.244,2.523-5.046V32.62h0C19.246,35.864,18.706,36.945,18.345,37.486Zm15.319.721a6.124,6.124,0,0,1-4.686,1.442,6.674,6.674,0,0,1-4.325-2.163c-.36-.36-.9-1.442-1.442-4.325V26.312c.721,1.8,1.982,4.686,2.523,5.046a1.789,1.789,0,0,0,2.7-2.343,37.485,37.485,0,0,0-3.785-2.884L33.3,28.655a6.861,6.861,0,0,1,1.081.9,6.124,6.124,0,0,1,1.442,4.686A5.493,5.493,0,0,1,33.664,38.207Zm5.407-16.76a5.836,5.836,0,0,1-3.6,3.244,6.4,6.4,0,0,1-1.262.18l-8.831-2.523c1.982-.18,4.325-.18,4.866-.541a1.825,1.825,0,0,0-1.262-3.424,36.121,36.121,0,0,0-4.145,2.523l5.407-7.93c.18-.18.36-.18.541-.36a6.505,6.505,0,0,1,4.866.18,5.836,5.836,0,0,1,3.244,3.6A5.568,5.568,0,0,1,39.071,21.446Z" transform="translate(-0.046)" fill="#ef6433"/>
</svg>
