<svg xmlns="http://www.w3.org/2000/svg" width="41.429" height="41.429" viewBox="0 0 41.429 41.429">
  <path id="Path_47" data-name="Path 47" d="M35.629,0H30.45L5.593,41.429h5.179Zm-1.45,41.429a7.339,7.339,0,0,1-7.25-7.25V27.964a7.25,7.25,0,1,1,14.5,0v6.214A7.339,7.339,0,0,1,34.179,41.429Zm0-16.571a3.186,3.186,0,0,0-3.107,3.107v6.214a3.107,3.107,0,1,0,6.214,0V27.964A3.186,3.186,0,0,0,34.179,24.857ZM7.25,20.714A7.339,7.339,0,0,1,0,13.464V7.25A7.339,7.339,0,0,1,7.25,0,7.339,7.339,0,0,1,14.5,7.25v6.214A7.339,7.339,0,0,1,7.25,20.714Zm0-16.571A3.186,3.186,0,0,0,4.143,7.25v6.214A3.186,3.186,0,0,0,7.25,16.571a3.186,3.186,0,0,0,3.107-3.107V7.25A3.186,3.186,0,0,0,7.25,4.143Z" fill="#ef6433"/>
</svg>
