<svg xmlns="http://www.w3.org/2000/svg" width="41.943" height="45.756" viewBox="0 0 41.943 45.756">
  <path id="Path_20" data-name="Path 20" d="M28.6,7.626V0H5.719A5.617,5.617,0,0,0,0,5.719V32.41A5.617,5.617,0,0,0,5.719,38.13h7.626v1.906a5.617,5.617,0,0,0,5.719,5.719H41.943V7.626ZM38.13,34.317H19.065a5.64,5.64,0,0,0-1.906.381V13.345a1.8,1.8,0,0,1,1.906-1.906H38.13ZM5.719,3.813H24.784V7.626H19.065a5.463,5.463,0,0,0-4.194,1.906H7.626v3.813h5.719V26.691H5.719a5.64,5.64,0,0,0-1.906.381V5.719A1.8,1.8,0,0,1,5.719,3.813Zm0,30.5a1.906,1.906,0,1,1,0-3.813h7.626v3.813Zm13.345,7.626a1.906,1.906,0,1,1,0-3.813H38.13v3.813ZM34.317,20.971H20.971V17.158H34.317Z" transform="translate(0)" fill="#ef6433"/>
</svg>
