<svg xmlns="http://www.w3.org/2000/svg" width="45.571" height="47.643" viewBox="0 0 45.571 47.643">
  <path id="Path_43" data-name="Path 43" d="M33.764,14.5a22.559,22.559,0,0,0,3.521-2.071A6.871,6.871,0,0,0,39.357,7.25a8.173,8.173,0,0,0-2.071-5.179A6.574,6.574,0,0,0,32.107,0h0a8.173,8.173,0,0,0-5.179,2.071c-1.243,1.243-2.9,4.971-4.143,8.286-1.243-3.314-2.9-7.043-4.143-8.286a7.649,7.649,0,0,0-10.357,0,7.649,7.649,0,0,0,0,10.357A22.559,22.559,0,0,0,11.807,14.5H0V47.643H45.571V14.5ZM41.429,29H24.857V19.471l1.243.414-.414-1.243H41.429ZM29.829,4.971a4.344,4.344,0,0,1,2.279-.829,4.344,4.344,0,0,1,2.279.829,4.344,4.344,0,0,1,.829,2.279,4.344,4.344,0,0,1-.829,2.279c-.829.829-4.35,2.279-8.079,3.729A39.324,39.324,0,0,1,29.829,4.971ZM10.357,7.25a4.344,4.344,0,0,1,.829-2.279,4.344,4.344,0,0,1,2.279-.829h0a4.344,4.344,0,0,1,2.279.829c.829.829,2.279,4.35,3.729,8.079a39.324,39.324,0,0,1-8.286-3.521A4.344,4.344,0,0,1,10.357,7.25Zm9.529,11.393-.414,1.243,1.243-.414V29H4.143V18.643ZM4.143,33.143H20.714V43.5H4.143ZM24.857,43.5V33.143H41.429V43.5Z" fill="#ef6433"/>
</svg>
