<svg xmlns="http://www.w3.org/2000/svg" width="56.343" height="54.893" viewBox="0 0 56.343 54.893">
  <path id="Path_44" data-name="Path 44" d="M56.343,16.571,55.514,14.5A27.537,27.537,0,0,0,42.879,1.036L40.807,0l-1.45,4.143A25.728,25.728,0,0,0,26.929,1.036,26.929,26.929,0,1,0,53.857,27.964a26.521,26.521,0,0,0-1.864-9.943ZM43.086,6.007a23.854,23.854,0,0,1,7.664,8.079l-12.014,4.35ZM24.857,5.386V25.893H4.35A22.223,22.223,0,0,1,24.857,5.386ZM4.35,30.036H26.1L41.429,45.571a22.756,22.756,0,0,1-14.5,5.386A23.084,23.084,0,0,1,4.35,30.036Zm45.364-2.071a22.332,22.332,0,0,1-5.386,14.5L29,27.136V5.386a22.285,22.285,0,0,1,8.907,2.693L31.693,25.271l16.157-5.8A20.262,20.262,0,0,1,49.714,27.964Z" fill="#ef6433"/>
</svg>
