<svg xmlns="http://www.w3.org/2000/svg" width="44.811" height="53.382" viewBox="0 0 44.811 53.382">
  <path id="Path_21" data-name="Path 21" d="M33.084,10.867,36.9,7.817,28.889,0H15.925L8.3,7.817l3.813,3.05A22.589,22.589,0,0,0,.1,30.885a22.255,22.255,0,0,0,22.306,22.5,22.538,22.538,0,0,0,22.5-22.5A22.064,22.064,0,0,0,33.084,10.867ZM25.648,5.719H19.357L18.022,3.813h8.961ZM16.306,9.532H28.7L22.6,14.68Zm6.1,40.036A18.714,18.714,0,0,1,3.724,30.885,19,19,0,0,1,15.163,13.536l7.245,6.1,7.245-6.1A18.8,18.8,0,0,1,41.091,30.885,18.473,18.473,0,0,1,22.407,49.569Z" transform="translate(-0.099 0)" fill="#ef6433"/>
</svg>
