<svg xmlns="http://www.w3.org/2000/svg" width="49.561" height="49.38" viewBox="0 0 49.561 49.38">
  <path id="Path_13" data-name="Path 13" d="M40.369,0V3.6h2.884L38.207,8.651a11.6,11.6,0,0,0-5.046-1.262,10.936,10.936,0,0,0-9.011,4.866,10.936,10.936,0,0,0-9.011-4.866A10.58,10.58,0,0,0,4.325,18.022c0,5.046,4.506,10.813,9.191,15.319l-2.7,2.7h-3.6L0,43.253H3.6L1.262,45.6l2.523,2.523,2.343-2.343v3.6l7.209-7.209v-3.6L27.213,24.69,24.69,22.167l-8.47,8.47c-4.325-4.145-8.29-9.011-8.29-12.615a7.078,7.078,0,0,1,7.209-7.029A7.23,7.23,0,0,1,22.347,18.2h3.6a7.23,7.23,0,0,1,7.209-7.209,7.078,7.078,0,0,1,7.209,7.029c0,6.127-10.813,15.5-16.22,19.464-1.081-.9-2.523-1.982-3.965-3.064l-2.523,2.523c2.7,2.163,4.866,3.785,5.587,4.325l1.081.721,1.081-.721C27.394,40.009,44.154,27.934,44.154,18.2a10.064,10.064,0,0,0-2.884-7.209l4.686-4.686v2.7h3.6V0Z" fill="#ef6433"/>
</svg>
