<svg xmlns="http://www.w3.org/2000/svg" width="53.536" height="36.289" viewBox="0 0 53.536 36.289">
  <path id="Path_22" data-name="Path 22" d="M36.27,11.439a1.906,1.906,0,0,1,3.813,0,1.906,1.906,0,0,1-3.813,0Zm1.906,5.719a1.8,1.8,0,0,0-1.906,1.906,1.906,1.906,0,0,0,3.813,0A1.8,1.8,0,0,0,38.176,17.158Zm3.813-3.813a1.8,1.8,0,0,0-1.906,1.906,1.906,1.906,0,1,0,3.813,0A1.8,1.8,0,0,0,41.989,13.345Zm-7.626,0a1.8,1.8,0,0,0-1.906,1.906,1.906,1.906,0,0,0,3.813,0A1.8,1.8,0,0,0,34.363,13.345ZM17.2,9.532H13.392v3.813H9.579v3.813h3.813v3.813H17.2V17.158h3.813V13.345H17.2ZM44.849,36.223A9.887,9.887,0,0,1,33.982,28.6h-14.3a9.194,9.194,0,0,1-3.622,5.529,9.851,9.851,0,0,1-6.1,2.1H8.625A10.4,10.4,0,0,1,1.953,32.41,10,10,0,0,1,.046,25.166L2.906,4.385,3.859,4A72.827,72.827,0,0,1,26.737,0,72.827,72.827,0,0,1,49.615,4l1.144.381,2.669,20.59A10.212,10.212,0,0,1,44.849,36.223Zm4.766-10.676-2.288-18.3a71.826,71.826,0,0,0-20.59-3.432c-9.151,0-17.54,2.478-20.4,3.241L3.859,25.547A6.63,6.63,0,0,0,5,30.123a5.789,5.789,0,0,0,4,2.288,6.392,6.392,0,0,0,4.576-1.144,5.789,5.789,0,0,0,2.288-4l.381-2.478H37.223l.381,2.288a6.212,6.212,0,0,0,6.863,5.338A6.3,6.3,0,0,0,49.615,25.547Z" transform="translate(0.051)" fill="#ef6433"/>
</svg>
