<svg xmlns="http://www.w3.org/2000/svg" width="47.021" height="51.786" viewBox="0 0 47.021 51.786">
  <path id="Path_46" data-name="Path 46" d="M26.929,29a4.143,4.143,0,0,1-8.286,0,1.867,1.867,0,0,1,.207-1.036l-7.871-7.871,2.9-2.9,7.871,7.871c.414,0,.621-.207,1.036-.207A4.155,4.155,0,0,1,26.929,29ZM29,0H16.571V4.143H29ZM40.186,14.5A22.332,22.332,0,0,1,45.571,29,22.786,22.786,0,1,1,22.786,6.214a22.332,22.332,0,0,1,14.5,5.386l2.279-2.279L37.907,7.664l2.9-2.9,6.214,6.214-2.9,2.9-1.657-1.657ZM41.429,29A18.643,18.643,0,1,0,22.786,47.643,18.565,18.565,0,0,0,41.429,29Z" fill="#ef6433"/>
</svg>
