<svg xmlns="http://www.w3.org/2000/svg" width="46.857" height="46.857" viewBox="0 0 46.857 46.857">
  <path id="Path_17" data-name="Path 17" d="M46.857,25.952A15.362,15.362,0,0,0,41.27,13.517c-2.884-2.343-8.11-4.506-16.58-3.064-.36-1.622-.541-3.965.541-5.407.541-.9,1.8-1.442,3.6-1.442V0c-3.064,0-5.226.9-6.668,2.884a10.073,10.073,0,0,0-1.262,7.389C13.156,9.191,8.29,11.354,5.587,13.517A15.362,15.362,0,0,0,0,25.952C0,39.829,7.93,46.857,23.429,46.857h0C38.928,46.857,46.857,39.829,46.857,25.952ZM14.057,16.4a6.915,6.915,0,0,1,4.506-1.982c-1.982,3.6-2.343,9.011-2.343,14.418,0,4.325.36,9.371,1.8,13.156-3.965-1.982-7.209-6.668-7.209-14.958C10.813,21.987,11.895,18.563,14.057,16.4Zm9.191,26.853c-.18,0-.36-.18-.721-.36-1.622-1.8-2.7-7.029-2.7-14.057,0-3.244,0-12.976,3.424-14.418l.541.18c3.244,1.8,3.244,10.993,3.244,14.237,0,7.029-1.081,12.255-2.7,14.057a1.165,1.165,0,0,1-.9.36h-.18Zm5.587-1.262c1.442-3.785,1.8-8.831,1.8-13.156,0-5.407-.36-10.813-2.163-14.418A10.184,10.184,0,0,1,32.98,16.4c2.163,1.982,3.244,5.587,3.244,10.633C36.044,35.323,32.8,40.009,28.835,41.991ZM3.6,25.952A11.885,11.885,0,0,1,7.749,16.4a9.14,9.14,0,0,1,2.884-1.622c-2.163,2.7-3.424,6.848-3.424,12.255,0,6.127,1.622,10.633,3.965,13.877C6.127,38.207,3.6,33.341,3.6,25.952ZM35.684,40.91c2.343-3.064,3.965-7.569,3.965-13.877,0-5.587-1.262-9.732-3.6-12.435a10.55,10.55,0,0,1,3.064,1.8,12.13,12.13,0,0,1,4.325,9.732C43.253,33.341,40.73,38.207,35.684,40.91Z" fill="#d8d8d8"/>
</svg>
