<svg xmlns="http://www.w3.org/2000/svg" width="39.648" height="48.659" viewBox="0 0 39.648 48.659">
  <path id="Path_16" data-name="Path 16" d="M31.719,36.224c1.8-.541,2.7-1.081,2.884-1.081l2.163-1.081L27.033,24.51a29.528,29.528,0,0,0,4.325-1.262L33.7,22.167,20.545,9.011l2.7,1.442-.721-3.785,2.7-2.7-3.6-.541L19.824,0,18.2,3.424l-3.785.541,2.7,2.7-.541,3.6,2.7-1.442L6.127,21.987,8.47,23.068A22.566,22.566,0,0,0,12.8,24.33L3.244,33.881l2.163,1.081A19.794,19.794,0,0,0,8.29,36.044L0,44.334l2.163,1.081c.36.18,6.488,3.244,17.662,3.244S37.306,45.6,37.486,45.416l2.163-1.081Zm-19.284-15.5,7.389-7.389,7.389,7.389c-1.081.18-2.523.541-4.145.721l-3.244.36-3.244-.36A21.715,21.715,0,0,1,12.435,20.725Zm7.389,24.33a49.208,49.208,0,0,1-13.517-1.8l9.011-9.011-3.244-.721c-1.081-.18-1.8-.36-2.523-.541L20,22.528,30.457,32.98c-.721.18-1.622.36-2.523.541l-3.424.721,9.011,9.011A50.812,50.812,0,0,1,19.824,45.055Z" fill="#ef6433"/>
</svg>
