<svg id="Group_80" data-name="Group 80" xmlns="http://www.w3.org/2000/svg" width="58" height="43.5" viewBox="0 0 58 43.5">
  <path id="Path_45" data-name="Path 45" d="M53.857,14.914V12.429a6.1,6.1,0,0,0-6.214-6.214H43.914a6.275,6.275,0,0,0-4.557-2.071,1.552,1.552,0,0,0-1.036.207A12.792,12.792,0,0,0,29,0a12.792,12.792,0,0,0-9.321,4.35,1.552,1.552,0,0,0-1.036-.207,5.935,5.935,0,0,0-4.557,2.071H10.357a6.1,6.1,0,0,0-6.214,6.214v2.486A6.034,6.034,0,0,0,0,20.714V43.5H4.143V39.357H53.857V43.5H58V20.714A6.034,6.034,0,0,0,53.857,14.914Zm-43.5-4.557h6.007l.621-1.243a2.152,2.152,0,0,1,1.657-.829c.207,0,.829.207,1.243.207l1.45.414.829-1.243A8.945,8.945,0,0,1,29,4.143a8.562,8.562,0,0,1,6.836,3.729l.829,1.243,1.45-.414a4.294,4.294,0,0,1,1.243-.414,2.152,2.152,0,0,1,1.657.829l.621,1.243h6.007a1.957,1.957,0,0,1,2.071,2.071v2.486a6.034,6.034,0,0,0-4.143,5.8v4.143H12.429V20.714a6.034,6.034,0,0,0-4.143-5.8V12.429A1.957,1.957,0,0,1,10.357,10.357ZM4.143,20.714a1.957,1.957,0,0,1,2.071-2.071,1.957,1.957,0,0,1,2.071,2.071V29H49.714V20.714a2.071,2.071,0,1,1,4.143,0v14.5H4.143Z" transform="translate(0 0)" fill="#d8d8d8"/>
  <circle id="Ellipse_3" data-name="Ellipse 3" cx="2.071" cy="2.071" r="2.071" transform="translate(26.929 14.5)" fill="#d8d8d8"/>
  <circle id="Ellipse_4" data-name="Ellipse 4" cx="2.071" cy="2.071" r="2.071" transform="translate(37.286 14.5)" fill="#d8d8d8"/>
  <circle id="Ellipse_5" data-name="Ellipse 5" cx="2.071" cy="2.071" r="2.071" transform="translate(16.571 14.5)" fill="#d8d8d8"/>
</svg>
