<svg xmlns="http://www.w3.org/2000/svg" width="45.756" height="49.569" viewBox="0 0 45.756 49.569">
  <path id="Path_19" data-name="Path 19" d="M45.756,22.878v-4c0-1.144-.572-7.054-2.288-9.532A12.322,12.322,0,0,0,38.13,4.385h0L36.986,4h0L31.267,2.1C30.695,1.906,25.738,0,22.878,0s-7.817,1.906-8.2,2.1L8.961,4a3.221,3.221,0,0,0-.953.381H7.626A11.084,11.084,0,0,0,2.1,9.723,25.413,25.413,0,0,0,0,19.065v3.813H7.626V49.569h30.5V22.878ZM40.418,11.439c.763,1.144,1.335,5.338,1.525,7.626H38.13V8.961A9.764,9.764,0,0,1,40.418,11.439ZM27.835,4.957a5.937,5.937,0,0,1-9.914,0,20,20,0,0,1,4.957-1.144A20,20,0,0,1,27.835,4.957ZM3.813,19.065a26.034,26.034,0,0,1,1.716-7.817,6.884,6.884,0,0,1,2.1-2.478v10.3Zm30.5,26.691H11.439V7.054L14.108,6.1a9.873,9.873,0,0,0,17.54,0l2.669.953Z" transform="translate(0)" fill="#ef6433"/>
</svg>
