<svg xmlns="http://www.w3.org/2000/svg" width="49.76" height="49.569" viewBox="0 0 49.76 49.569">
  <path id="Path_23" data-name="Path 23" d="M49.569,5.719A5.617,5.617,0,0,0,43.849,0a5.323,5.323,0,0,0-3.813,1.525,16.049,16.049,0,0,0-22.878,14.68,16.54,16.54,0,0,0,.953,5.338l-.191.572c-.381,1.144-1.716,4.957-3.813,7.054-1.525,1.525-4.385,2.86-6.863,4.194a20.6,20.6,0,0,0-4.957,3.05A7.214,7.214,0,0,0,0,41.752a7.96,7.96,0,0,0,2.288,5.529,7.635,7.635,0,0,0,5.529,2.288,7.96,7.96,0,0,0,5.529-2.288,20.6,20.6,0,0,0,3.05-4.957c1.335-2.478,2.669-5.338,4.194-6.863a18.116,18.116,0,0,1,7.054-3.813l.572-.191a16.54,16.54,0,0,0,5.338.953A16.192,16.192,0,0,0,49.759,16.205a16.253,16.253,0,0,0-1.525-6.673A6.141,6.141,0,0,0,49.569,5.719ZM43.849,3.813a1.8,1.8,0,0,1,1.906,1.906,1.906,1.906,0,0,1-3.813,0A1.8,1.8,0,0,1,43.849,3.813Zm-5.719.953v.953a5.617,5.617,0,0,0,5.719,5.719H44.8a13.275,13.275,0,0,1,.953,4.766,12.44,12.44,0,0,1-2.478,7.435c-1.144.572-6.482-.953-11.439-5.91s-6.482-10.3-6.1-11.248h0a11.976,11.976,0,0,1,7.626-2.669A13.275,13.275,0,0,1,38.13,4.766ZM17.73,32.792c-1.906,1.906-3.432,5.148-4.957,7.817a22.6,22.6,0,0,1-2.288,4,3.909,3.909,0,0,1-6.673-2.86,4.2,4.2,0,0,1,1.144-2.86,22.6,22.6,0,0,1,4-2.288c2.669-1.335,5.719-2.86,7.817-4.957a18.377,18.377,0,0,0,3.813-5.91,23.058,23.058,0,0,0,3.05,3.05A29.364,29.364,0,0,0,17.73,32.792Zm3.241-16.586a10.886,10.886,0,0,1,1.716-6.1,25.706,25.706,0,0,0,6.482,10.3,27.477,27.477,0,0,0,9.151,6.1c.381.191.763.191,1.144.381a11.827,11.827,0,0,1-6.1,1.716A12.368,12.368,0,0,1,20.971,16.205Z" transform="translate(0)" fill="#ef6433"/>
</svg>
