<svg id="Monitor-icon" xmlns="http://www.w3.org/2000/svg" width="79.378" height="69.456" viewBox="0 0 79.378 69.456">
  <path id="Path_10" data-name="Path 10" d="M29.821,19.984,29.49,18H17.253l-.331,1.984a4.566,4.566,0,0,1-4.3,3.969H7v3.969H40.074V23.953H34.452A4.637,4.637,0,0,1,29.821,19.984Z" transform="translate(16.152 41.533)" fill="#ef6433"/>
  <path id="Path_11" data-name="Path 11" d="M72.763,0H6.615A6.634,6.634,0,0,0,0,6.615v43a6.634,6.634,0,0,0,6.615,6.615H72.763a6.634,6.634,0,0,0,6.615-6.615v-43A6.634,6.634,0,0,0,72.763,0ZM39.689,52.919A3.307,3.307,0,1,1,43,49.611,3.125,3.125,0,0,1,39.689,52.919ZM6.615,43V6.615H72.763V43Z" fill="#ef6433"/>
</svg>
