<svg xmlns="http://www.w3.org/2000/svg" viewBox="0 0 88.699 69.692">
  <defs>
    <style>
      .cls-1 {
        fill: #ef6433;
      }
    </style>
  </defs>
  <path id="Nomibal-icon" class="cls-1" d="M79.2,12.671H76.028V9.5a9.334,9.334,0,0,0-9.5-9.5H9.5A9.334,9.334,0,0,0,0,9.5V47.517a9.334,9.334,0,0,0,9.5,9.5h3.168v3.168a9.334,9.334,0,0,0,9.5,9.5H79.2a9.334,9.334,0,0,0,9.5-9.5V22.175A9.334,9.334,0,0,0,79.2,12.671Zm0,6.336a2.993,2.993,0,0,1,3.168,3.168v3.168H76.028V19.007ZM6.336,47.517V9.5A2.993,2.993,0,0,1,9.5,6.336H66.524A2.993,2.993,0,0,1,69.692,9.5v3.168H9.5v6.336H69.692v28.51a2.993,2.993,0,0,1-3.168,3.168H9.5A2.993,2.993,0,0,1,6.336,47.517ZM79.2,63.356H22.175a2.993,2.993,0,0,1-3.168-3.168V57.021H66.524a9.334,9.334,0,0,0,9.5-9.5V31.678h6.336v28.51A2.993,2.993,0,0,1,79.2,63.356Z" transform="translate(0)"/>
</svg>
