<svg xmlns="http://www.w3.org/2000/svg" viewBox="0 0 75.664 60.531">
  <defs>
    <style>
      .cls-1 {
        fill: #ef6433;
      }
    </style>
  </defs>
  <path id="Path_56" data-name="Path 56" class="cls-1" d="M64.819,32.536a13.28,13.28,0,0,0,5.8-11.1c0-7.314-5.3-12.611-12.611-13.62v5.044c4.54,1.009,7.566,4.035,7.566,8.575S62.549,29,58.009,30.014v5.549A15.379,15.379,0,0,1,70.62,50.443h5.044A20.924,20.924,0,0,0,64.819,32.536ZM17.655,30.014c-4.54-1.009-7.566-4.035-7.566-8.575,0-4.288,3.027-7.566,7.566-8.575V7.819C10.341,8.828,5.044,14.376,5.044,21.438a12.954,12.954,0,0,0,5.8,11.1A20.924,20.924,0,0,0,0,50.443H5.044A15.379,15.379,0,0,1,17.655,35.562Zm30.014,2.27a17.655,17.655,0,1,0-19.673,0,25.183,25.183,0,0,0-15.385,23.2h5.044a20.5,20.5,0,0,1,13.62-19.168l5.8,5.8L32.788,55.487l5.044,5.044,5.044-5.044-4.54-13.115,5.8-5.8a20.165,20.165,0,0,1,13.62,19.168H62.8A24.676,24.676,0,0,0,47.669,32.283ZM25.221,17.655a12.611,12.611,0,0,1,25.221,0,12.611,12.611,0,1,1-25.221,0Z"/>
</svg>
