<svg xmlns="http://www.w3.org/2000/svg" viewBox="0 0 45.76 61.014">
  <defs>
    <style>
      .cls-1 {
        fill: #fff;
      }
    </style>
  </defs>
  <path id="Path_52" data-name="Path 52" class="cls-1" d="M22.88,25.422h0A10.2,10.2,0,0,1,12.711,15.253V10.169H33.049v5.084A10.2,10.2,0,0,1,22.88,25.422Zm17.8-10.169V5.084H45.76V0H0V5.084H5.084V15.253a18.058,18.058,0,0,0,8.644,15.253A18.058,18.058,0,0,0,5.084,45.76V55.929H0v5.084H45.76V55.929H40.676V45.76a18.058,18.058,0,0,0-8.644-15.253A18.058,18.058,0,0,0,40.676,15.253ZM35.591,45.76V55.929H10.169V45.76A12.588,12.588,0,0,1,22.88,33.049,12.588,12.588,0,0,1,35.591,45.76ZM10.169,15.253V5.084H35.591V15.253A12.588,12.588,0,0,1,22.88,27.965,12.588,12.588,0,0,1,10.169,15.253Z" transform="translate(0 0)"/>
</svg>
