<svg xmlns="http://www.w3.org/2000/svg" viewBox="0 0 80.65 77.548">
  <defs>
    <style>
      .cls-1 {
        fill: #fff;
      }
    </style>
  </defs>
  <path id="Path_18" data-name="Path 18" class="cls-1" d="M63.59,18.612a4.771,4.771,0,0,1,4.653,4.653,4.653,4.653,0,0,1-9.306,0A4.771,4.771,0,0,1,63.59,18.612Zm-46.529,0a4.653,4.653,0,0,1,0,9.306,4.653,4.653,0,1,1,0-9.306ZM0,0V46.529H80.65V0ZM74.447,34.121a6.222,6.222,0,0,0-6.2,6.2H12.408a6.222,6.222,0,0,0-6.2-6.2V12.408a6.222,6.222,0,0,0,6.2-6.2H68.243a6.222,6.222,0,0,0,6.2,6.2ZM40.325,15.51c3.412,0,6.2,3.412,6.2,7.755s-2.792,7.755-6.2,7.755-6.2-3.412-6.2-7.755,2.792-7.755,6.2-7.755m0-6.2c-6.824,0-12.408,6.2-12.408,13.959S33.5,37.223,40.325,37.223s12.408-6.2,12.408-13.959S47.149,9.306,40.325,9.306Zm3.1,52.733V52.733h-6.2v9.306H24.816l15.51,15.51,15.51-15.51Z"/>
</svg>
