<svg xmlns="http://www.w3.org/2000/svg" viewBox="0 0 61.682 59.112">
  <defs>
    <style>
      .cls-1 {
        fill: #ef6433;
      }
    </style>
  </defs>
  <path id="Path_55" data-name="Path 55" class="cls-1" d="M61.682,10.28H48.318A7.541,7.541,0,0,0,41.121,0C36.5,0,32.9,3.855,30.841,7.453,28.785,3.855,25.187,0,20.561,0a7.541,7.541,0,0,0-7.2,10.28H0V25.7H2.57V59.112H59.112V25.7h2.57ZM41.121,5.14a2.428,2.428,0,0,1,2.57,2.57,2.428,2.428,0,0,1-2.57,2.57H34.953C36.752,7.71,39.065,5.14,41.121,5.14ZM17.991,7.71a2.428,2.428,0,0,1,2.57-2.57c2.056,0,4.369,2.57,6.168,5.14H20.561A2.428,2.428,0,0,1,17.991,7.71ZM5.14,15.421h51.4v5.14H33.411v-2.57h-5.14v2.57H5.14ZM53.972,53.972H33.411v-25.7h-5.14v25.7H7.71V25.7H53.972Z" transform="translate(0 0)"/>
</svg>
