<svg xmlns="http://www.w3.org/2000/svg" viewBox="0 0 86.1 61.5">
  <defs>
    <style>
      .cls-1 {
        fill: #ef6433;
      }
    </style>
  </defs>
  <path id="Path_62" data-name="Path 62" class="cls-1" d="M76.875,61.5H9.225A9.06,9.06,0,0,1,0,52.275V9.225A9.06,9.06,0,0,1,9.225,0h67.65A9.06,9.06,0,0,1,86.1,9.225v43.05A9.06,9.06,0,0,1,76.875,61.5ZM9.225,6.15A2.905,2.905,0,0,0,6.15,9.225v43.05A2.905,2.905,0,0,0,9.225,55.35h67.65a2.905,2.905,0,0,0,3.075-3.075V9.225A2.905,2.905,0,0,0,76.875,6.15ZM24.6,39.975H12.3v6.15H24.6Zm15.375,0h-12.3v6.15h12.3Zm15.375,0H43.05v6.15h12.3Zm15.375,0h-12.3v6.15h12.3Zm0-21.525H43.05V24.6H70.725Zm-58.425,0H27.675v12.3H12.3Z"/>
</svg>
