<svg xmlns="http://www.w3.org/2000/svg" viewBox="0 0 68.372 70.543">
  <defs>
    <style>
      .cls-1 {
        fill: #ef6433;
      }
    </style>
  </defs>
  <path id="Path_35" data-name="Path 35" class="cls-1" d="M34.457,48.837A13.566,13.566,0,1,1,48.023,35.271,13.605,13.605,0,0,1,34.457,48.837Zm0-21.705a8.14,8.14,0,1,0,8.14,8.14A8.163,8.163,0,0,0,34.457,27.132Zm7.6,43.411H26.589L24.69,60.5a30.484,30.484,0,0,1-7.6-4.341L7.6,59.419,0,46.4l7.6-6.783a23.339,23.339,0,0,1-.271-4.341A23.339,23.339,0,0,1,7.6,30.93L0,24.147,7.6,10.853l9.5,3.256a42.242,42.242,0,0,1,7.6-4.341L26.589,0H41.783l1.9,10.039a30.484,30.484,0,0,1,7.6,4.341l9.5-3.256,7.6,13.295-7.6,6.783a23.339,23.339,0,0,1,.271,4.341,23.339,23.339,0,0,1-.271,4.341l7.6,6.783-7.6,13.295-9.225-3.8a26.331,26.331,0,0,1-7.6,4.341ZM31.2,65.116h6.512l1.628-8.682,1.628-.543a18.229,18.229,0,0,0,8.14-4.884l1.085-1.085L58.6,52.636l3.256-5.426-6.512-5.7.271-1.628A29.9,29.9,0,0,0,56.163,35a29.9,29.9,0,0,0-.543-4.884l-.271-1.628,6.512-5.7L58.6,17.364l-8.411,2.713-1.085-1.085a25.051,25.051,0,0,0-8.14-4.884l-1.628-.543-1.9-8.14H30.93L29.3,14.109l-1.628.543a21.085,21.085,0,0,0-8.14,4.884l-1.085.814-8.411-2.713L6.783,23.062l6.783,5.969-.271,1.628a29.9,29.9,0,0,0-.543,4.884,29.9,29.9,0,0,0,.543,4.884l.271,1.085-6.512,5.7,3.256,5.426,8.411-2.713,1.085,1.085a25.052,25.052,0,0,0,8.14,4.884l1.628.543Z"/>
</svg>
