<svg xmlns="http://www.w3.org/2000/svg" viewBox="0 0 104.311 103.883">
  <defs>
    <style>
      .cls-1 {
        fill: #ef6433;
      }
    </style>
  </defs>
  <path id="Path_59" data-name="Path 59" class="cls-1" d="M68.4,74.386v-8.55H59.423a32.979,32.979,0,0,0-4.275-10.688l6.413-6.413L55.575,42.75l-6.413,6.413a23.536,23.536,0,0,0-10.688-4.275V35.91h-8.55v8.978a32.979,32.979,0,0,0-10.688,4.275L12.825,42.75,6.84,48.735l6.413,6.413A23.536,23.536,0,0,0,8.978,65.836H0v8.55H8.978a32.979,32.979,0,0,0,4.275,10.688L6.84,91.486l5.985,5.558,6.413-6.413a23.536,23.536,0,0,0,10.688,4.275v8.978h8.55V94.906a32.979,32.979,0,0,0,10.688-4.275l6.413,6.413,5.985-5.985-6.413-6.413a23.536,23.536,0,0,0,4.275-10.688H68.4ZM34.2,87.211a17.1,17.1,0,1,1,17.1-17.1A17.15,17.15,0,0,1,34.2,87.211ZM98.326,27.36a11.835,11.835,0,0,0-.428-3.848l6.413-2.565-3.42-8.123L94.478,15.39a26.484,26.484,0,0,0-5.985-5.985L91.058,3.42,83.363,0,80.8,5.985a11.836,11.836,0,0,0-3.848-.428,11.836,11.836,0,0,0-3.848.428L70.538,0,62.415,3.42l2.565,6.413A19.976,19.976,0,0,0,59,15.818l-6.413-2.993-3.42,7.7,6.413,2.993v7.7L49.59,33.773,53.01,41.9,59,39.33a17.256,17.256,0,0,0,5.558,5.558L61.988,51.3l7.7,3.42,2.565-6.413a14.543,14.543,0,0,0,4.275.428,14.543,14.543,0,0,0,4.275-.428l2.565,6.413,8.123-3.42-2.565-6.413c2.138-1.283,3.848-3.42,5.558-5.558l5.985,2.565,3.42-7.7L97.9,31.635C97.9,30.353,98.326,28.643,98.326,27.36ZM76.951,40.185A12.6,12.6,0,0,1,64.126,27.36a12.825,12.825,0,1,1,25.65,0A12.862,12.862,0,0,1,76.951,40.185Z"/>
</svg>
