<svg xmlns="http://www.w3.org/2000/svg" viewBox="0 0 95.228 62.493">
  <defs>
    <style>
      .cls-1 {
        fill: #ef6433;
      }
    </style>
  </defs>
  <path id="Path_53" data-name="Path 53" class="cls-1" d="M56.541,0a11.156,11.156,0,0,0-8.928,4.166A11.156,11.156,0,0,0,38.686,0H0V56.541H38.686a5.969,5.969,0,0,1,5.952,5.952H50.59a5.969,5.969,0,0,1,5.952-5.952H95.228V0ZM89.276,50.59H56.541a11.156,11.156,0,0,0-8.928,4.166,12.126,12.126,0,0,0-8.928-4.166H5.952V5.952H38.686A5.969,5.969,0,0,1,44.638,11.9H50.59a5.969,5.969,0,0,1,5.952-5.952H89.276ZM23.807,20.831H11.9V14.879h11.9Zm11.9,0H29.759V14.879H35.71Zm-11.9,11.9H11.9V26.783h11.9Zm47.614-11.9h-11.9V14.879h11.9Zm11.9,0H77.372V14.879h5.952Zm-11.9,11.9h-11.9V26.783h11.9Zm-47.614,11.9H11.9V38.686h11.9Zm11.9,0H29.759V38.686H35.71Z"/>
</svg>
