<svg xmlns="http://www.w3.org/2000/svg" viewBox="0 0 80.939 88.665">
  <defs>
    <style>
      .cls-1 {
        fill: #ef6433;
      }
    </style>
  </defs>
  <path id="Path_60" data-name="Path 60" class="cls-1" d="M40.47,88.665,39,88.3C37.526,87.561,0,71.741,0,14.716V11.037H3.679c8.83,0,13.612-2.575,18.763-5.519C27.593,2.943,32.744,0,40.47,0S53.714,2.943,58.5,5.519c5.151,2.943,10.3,5.519,18.763,5.519h3.679v3.679c0,57.025-37.526,72.845-39,73.213ZM7.358,18.4C8.83,62.176,34.215,77.26,40.47,80.571c6.254-3.311,31.64-18.4,33.111-62.176-8.462-.736-13.612-3.679-18.4-6.254S46.356,7.358,40.47,7.358s-9.933,2.207-14.348,4.783C21.338,14.716,15.82,17.659,7.358,18.4ZM65.119,32.008l-5.151-5.151L36.79,50.035,24.65,37.894,19.5,43.045,36.79,60.336Z"/>
</svg>
