<svg xmlns="http://www.w3.org/2000/svg" viewBox="0 0 64.847 64.847">
  <defs>
    <style>
      .cls-1 {
        fill: #fff;
      }
    </style>
  </defs>
  <path id="Path_20" data-name="Path 20" class="cls-1" d="M62.195,19.749,48.341,5.9l-4.127,4.127,8.253,8.253a9.6,9.6,0,0,0-5.306,8.253,8.649,8.649,0,0,0,11.79,8.253V56a2.948,2.948,0,1,1-5.9,0V44.214a5.913,5.913,0,0,0-5.9-5.9h-5.9V8.843A8.685,8.685,0,0,0,32.424,0H8.843A8.685,8.685,0,0,0,0,8.843v56H41.267V44.214h5.9V56a8.843,8.843,0,1,0,17.686,0V25.939A8.484,8.484,0,0,0,62.195,19.749ZM8.843,5.9H32.424a2.785,2.785,0,0,1,2.948,2.948v11.79H5.9V8.843A2.785,2.785,0,0,1,8.843,5.9ZM5.9,58.952V26.528H35.371V58.952ZM56,29.476a2.785,2.785,0,0,1-2.948-2.948,2.948,2.948,0,0,1,5.9,0A2.785,2.785,0,0,1,56,29.476Z"/>
</svg>
