<svg xmlns="http://www.w3.org/2000/svg" viewBox="0 0 64.642 70.812">
  <defs>
    <style>
      .cls-1 {
        fill: #fff;
      }
    </style>
  </defs>
  <path id="Path_63" data-name="Path 63" class="cls-1" d="M32.321,70.812l-1.175-.294C29.97,69.931,0,57.3,0,11.753V8.815H2.938c7.052,0,10.872-2.057,14.985-4.407C22.037,2.351,26.15,0,32.321,0S42.9,2.351,46.718,4.407C50.832,6.758,54.945,8.815,61.7,8.815h2.938v2.938c0,45.543-29.97,58.178-31.146,58.471ZM5.877,14.691C7.052,49.657,27.326,61.7,32.321,64.348c5-2.644,25.269-14.691,26.444-49.657-6.758-.588-10.872-2.938-14.691-5s-7.052-3.82-11.753-3.82S24.388,7.639,20.862,9.7C17.042,11.753,12.635,14.1,5.877,14.691ZM52.007,25.563l-4.114-4.114L29.383,39.96l-9.7-9.7-4.114,4.114,13.81,13.81Z" transform="translate(0 0)"/>
</svg>
