<svg xmlns="http://www.w3.org/2000/svg" viewBox="0 0 49.949 66.598">
  <defs>
    <style>
      .cls-1 {
        fill: #ef6433;
      }
    </style>
  </defs>
  <path id="Path_53" data-name="Path 53" class="cls-1" d="M44.4,16.65V5.55h5.55V0H0V5.55H5.55v11.1A19.711,19.711,0,0,0,14.985,33.3,19.711,19.711,0,0,0,5.55,49.949v11.1H0V66.6H49.949v-5.55H44.4v-11.1A19.711,19.711,0,0,0,34.964,33.3,19.711,19.711,0,0,0,44.4,16.65Zm-5.55,33.3v11.1H36.074a11.1,11.1,0,1,0-22.2,0H11.1v-11.1A13.74,13.74,0,0,1,24.974,36.074,13.74,13.74,0,0,1,38.849,49.949ZM11.1,16.65V5.55H38.849v11.1A13.74,13.74,0,0,1,24.974,30.524,13.74,13.74,0,0,1,11.1,16.65Zm3.052,2.775a11.073,11.073,0,0,0,10.822,8.325A11.318,11.318,0,0,0,35.8,19.424Z" transform="translate(0 0)"/>
</svg>
