<svg xmlns="http://www.w3.org/2000/svg" viewBox="0 0 72.8 52">
  <defs>
    <style>
      .cls-1 {
        fill: #ef6433;
      }
    </style>
  </defs>
  <path id="Path_59" data-name="Path 59" class="cls-1" d="M65,0H7.8A7.661,7.661,0,0,0,0,7.8V44.2A7.661,7.661,0,0,0,7.8,52H65a7.661,7.661,0,0,0,7.8-7.8V7.8A7.661,7.661,0,0,0,65,0Zm2.6,23.4H46.8v5.2H67.6V44.2A2.456,2.456,0,0,1,65,46.8H28.6v-13H23.4v13H7.8a2.456,2.456,0,0,1-2.6-2.6V7.8A2.456,2.456,0,0,1,7.8,5.2H23.4V13h5.2V5.2H65a2.456,2.456,0,0,1,2.6,2.6ZM36.4,13c-4.68,0-8.32,3.9-10.4,7.54C23.92,16.9,20.28,13,15.6,13a7.661,7.661,0,0,0-7.8,7.8,7.661,7.661,0,0,0,7.8,7.8h1.3A13.221,13.221,0,0,0,13,35.88l5.2,1.04c.78-4.94,5.98-7.28,7.8-8.06,1.82.78,7.02,3.38,7.8,8.06L39,35.88a13.221,13.221,0,0,0-3.9-7.28h1.3a7.661,7.661,0,0,0,7.8-7.8A7.661,7.661,0,0,0,36.4,13ZM13,20.8a2.456,2.456,0,0,1,2.6-2.6c2.08,0,4.42,2.6,6.24,5.2H15.6A2.456,2.456,0,0,1,13,20.8Zm23.4,2.6H30.16c1.56-2.6,3.9-5.2,6.24-5.2A2.456,2.456,0,0,1,39,20.8,2.456,2.456,0,0,1,36.4,23.4Z" transform="translate(0 0)"/>
</svg>
