<svg xmlns="http://www.w3.org/2000/svg" viewBox="0 0 70.62 55.487">
  <defs>
    <style>
      .cls-1 {
        fill: #fff;
      }
    </style>
  </defs>
  <path id="Path_54" data-name="Path 54" class="cls-1" d="M63.054,10.089H60.531V7.566A7.431,7.431,0,0,0,52.965,0H7.566A7.431,7.431,0,0,0,0,7.566V37.832A7.431,7.431,0,0,0,7.566,45.4h2.522v2.522a7.431,7.431,0,0,0,7.566,7.566h45.4a7.431,7.431,0,0,0,7.566-7.566V17.655A7.431,7.431,0,0,0,63.054,10.089Zm0,5.044a2.383,2.383,0,0,1,2.522,2.522v2.522H60.531V15.133ZM5.044,37.832V7.566A2.383,2.383,0,0,1,7.566,5.044h45.4a2.383,2.383,0,0,1,2.522,2.522v2.522H7.566v5.044H55.487v22.7a2.383,2.383,0,0,1-2.522,2.522H7.566A2.383,2.383,0,0,1,5.044,37.832ZM63.054,50.443h-45.4a2.383,2.383,0,0,1-2.522-2.522V45.4H52.965a7.431,7.431,0,0,0,7.566-7.566V25.221h5.044v22.7A2.383,2.383,0,0,1,63.054,50.443Z" transform="translate(0 0)"/>
</svg>
