<svg xmlns="http://www.w3.org/2000/svg" viewBox="0 0 69 69">
  <defs>
    <style>
      .cls-1 {
        fill: #ef6433;
      }
    </style>
  </defs>
  <path id="Path_57" data-name="Path 57" class="cls-1" d="M46,50.089l-4.344,4.344,3.578,3.578,5.878-5.878v-13.8H46V50.089ZM56.222,29.644V0H0V56.222H29.644A20.42,20.42,0,0,0,69,48.556,20.431,20.431,0,0,0,56.222,29.644ZM40.889,5.111H51.111V15.333H40.889ZM51.111,20.444h0v7.922h0c-.767,0-1.789-.256-2.556-.256a18.672,18.672,0,0,0-7.667,1.533v-9.2ZM20.444,5.111H35.778V15.333H20.444Zm0,15.333H35.778V32.711a17.348,17.348,0,0,0-3.067,3.067H20.444ZM15.333,51.111H5.111V40.889H15.333Zm0-15.333H5.111V20.444H15.333Zm0-20.444H5.111V5.111H15.333ZM28.367,51.111H20.444V40.889h9.2a18.672,18.672,0,0,0-1.533,7.667,8.694,8.694,0,0,0,.256,2.556ZM48.556,63.889A15.333,15.333,0,1,1,63.889,48.556,15.378,15.378,0,0,1,48.556,63.889Z"/>
</svg>
