<svg xmlns="http://www.w3.org/2000/svg" viewBox="0 0 67.83 70.543">
  <defs>
    <style>
      .cls-1 {
        fill: #fff;
      }
    </style>
  </defs>
  <path id="Path_33" data-name="Path 33" class="cls-1" d="M42.054,35.271a4.07,4.07,0,1,1-4.07,4.07A4.173,4.173,0,0,1,42.054,35.271Zm-18.992,0a4.07,4.07,0,1,1-4.07,4.07A4.173,4.173,0,0,1,23.062,35.271ZM62.4,27.132h0A30.241,30.241,0,0,0,32.558,0,29.759,29.759,0,0,0,2.713,29.845v3.8A10.848,10.848,0,0,0,0,40.7a10.308,10.308,0,0,0,6.512,9.767A27.012,27.012,0,0,0,54.264,59.69h0a10.571,10.571,0,0,0,10.581-8.682,5.125,5.125,0,0,0,2.985-4.884V32.558A5.127,5.127,0,0,0,62.4,27.132Zm0,5.426V46.124H59.69V32.558ZM32.558,5.426A24.451,24.451,0,0,1,56.434,25.233a22.6,22.6,0,0,0-4.07-1.085c-4.612-.543-8.954-1.085-8.954-10.581H37.985c0,6.512-2.442,8.411-4.884,9.5-3.256,1.357-7.6,1.357-11.938,1.357-3.527,0-7.054,0-10.039.814a9.03,9.03,0,0,0-2.713,1.628A24.137,24.137,0,0,1,32.558,5.426ZM54.264,54.264H37.713a4.081,4.081,0,0,0-3.8-2.713,4.07,4.07,0,0,0,0,8.14H46.938a21.045,21.045,0,0,1-14.38,5.426A22.019,22.019,0,0,1,11.4,48.023L10.853,46.4l-1.628-.543a5.273,5.273,0,0,1-.271-10.039l1.9-.543V33.1a2.433,2.433,0,0,1,1.9-2.713,38.51,38.51,0,0,1,8.411-.543c4.612,0,10.039,0,14.38-1.9a15.613,15.613,0,0,0,5.155-4.07c2.985,4.612,8.14,5.426,11.124,5.7a6.48,6.48,0,0,1,2.442.543V51.551h4.612A4.948,4.948,0,0,1,54.264,54.264Z"/>
</svg>
