<svg xmlns="http://www.w3.org/2000/svg" viewBox="0 0 71.421 62.493">
  <defs>
    <style>
      .cls-1 {
        fill: #ef6433;
      }
    </style>
  </defs>
  <path id="Path_52" data-name="Path 52" class="cls-1" d="M35.71,8.928A2.812,2.812,0,0,1,38.686,11.9a2.976,2.976,0,0,1-5.952,0A2.812,2.812,0,0,1,35.71,8.928ZM11.9,32.734a2.976,2.976,0,1,1,0,5.952,2.976,2.976,0,1,1,0-5.952Zm47.614,0a2.976,2.976,0,1,1-2.976,2.976A2.812,2.812,0,0,1,59.517,32.734ZM47.614,12.2a2.812,2.812,0,0,1,2.976,2.976,2.976,2.976,0,0,1-5.952,0A2.812,2.812,0,0,1,47.614,12.2ZM15.177,44.638a2.976,2.976,0,1,1,0,5.952,2.976,2.976,0,1,1,0-5.952ZM59.22,23.807a2.812,2.812,0,0,0-2.976-2.976,2.273,2.273,0,0,0-1.488.6h0l-4.464,2.381L38.686,30.651a5.027,5.027,0,0,0-2.976-.893,5.952,5.952,0,1,0,5.952,5.952l16.07-9.225h0A3.125,3.125,0,0,0,59.22,23.807ZM23.807,12.2a2.812,2.812,0,0,1,2.976,2.976,2.812,2.812,0,0,1-2.976,2.976,2.812,2.812,0,0,1-2.976-2.976A2.812,2.812,0,0,1,23.807,12.2ZM56.244,44.638a2.976,2.976,0,1,1-2.976,2.976A2.982,2.982,0,0,1,56.244,44.638ZM15.177,20.831a2.812,2.812,0,0,1,2.976,2.976,2.812,2.812,0,0,1-2.976,2.976A2.812,2.812,0,0,1,12.2,23.807,2.812,2.812,0,0,1,15.177,20.831ZM59.22,62.493H12.2l-.893-.893A34.721,34.721,0,0,1,0,35.71a35.71,35.71,0,0,1,71.421,0A34.721,34.721,0,0,1,60.112,61.6ZM14.582,56.541H56.839a29.274,29.274,0,0,0,8.63-20.831,29.759,29.759,0,0,0-59.517,0A29.274,29.274,0,0,0,14.582,56.541Z"/>
</svg>
