<svg xmlns="http://www.w3.org/2000/svg" viewBox="0 0 88.392 81.026">
  <defs>
    <style>
      .cls-1 {
        fill: #fff;
      }
    </style>
  </defs>
  <path id="Path_65" data-name="Path 65" class="cls-1" d="M64.452,0C52.667,0,40.513,4.42,40.513,12.89V29.1c-4.42-2.21-10.681-3.315-16.573-3.315C12.154,25.781,0,30.2,0,38.671V68.135c0,8.471,12.154,12.89,23.939,12.89s23.939-4.42,23.939-12.89V66.662c4.42,2.21,10.681,3.315,16.573,3.315,11.786,0,23.939-4.42,23.939-12.89V12.89C88.391,4.42,76.238,0,64.452,0Zm0,7.366c10.681,0,16.573,4.051,16.573,5.524s-5.893,5.524-16.573,5.524S47.879,14.364,47.879,12.89,53.771,7.366,64.452,7.366ZM23.939,33.147c10.681,0,16.573,4.051,16.573,5.524S34.62,44.2,23.939,44.2,7.366,40.144,7.366,38.671,13.259,33.147,23.939,33.147ZM7.366,48.247c4.42,2.21,10.681,3.315,16.573,3.315s12.154-1.1,16.573-3.315V53.4c0,1.473-5.893,5.524-16.573,5.524S7.366,54.876,7.366,53.4ZM23.939,73.66c-10.681,0-16.573-4.051-16.573-5.524V62.979c4.42,2.21,10.681,3.315,16.573,3.315s12.154-1.1,16.573-3.315v5.156C40.513,69.608,34.62,73.66,23.939,73.66ZM64.452,62.611c-10.681,0-16.573-4.051-16.573-5.524V51.93c4.42,2.21,10.681,3.315,16.573,3.315s12.154-1.1,16.573-3.315v5.156C81.026,58.559,75.133,62.611,64.452,62.611Zm0-14.732c-10.681,0-16.573-4.051-16.573-5.524V37.2c4.42,2.21,10.681,3.315,16.573,3.315s12.154-1.1,16.573-3.315v5.156C81.026,43.827,75.133,47.879,64.452,47.879Zm0-14.732c-10.681,0-16.573-4.051-16.573-5.524V22.466c4.42,2.21,10.681,3.315,16.573,3.315s12.154-1.1,16.573-3.315v5.156C81.026,29.1,75.133,33.147,64.452,33.147Z"/>
</svg>
