<svg xmlns="http://www.w3.org/2000/svg" viewBox="0 0 62 67.918">
  <defs>
    <style>
      .cls-1 {
        fill: #ef6433;
      }
    </style>
  </defs>
  <path id="Path_58" data-name="Path 58" class="cls-1" d="M31,67.918l-1.127-.282C28.745,67.073,0,54.955,0,11.273V8.455H2.818c6.764,0,10.427-1.973,14.373-4.227C21.136,2.255,25.082,0,31,0S41.145,2.255,44.809,4.227C48.755,6.482,52.7,8.455,59.182,8.455H62v2.818c0,43.682-28.745,55.8-29.873,56.082ZM5.636,14.091C6.764,47.627,26.209,59.182,31,61.718c4.791-2.536,24.236-14.091,25.364-47.627-6.482-.564-10.427-2.818-14.091-4.791S35.509,5.636,31,5.636,23.391,7.327,20.009,9.3C16.345,11.273,12.118,13.527,5.636,14.091ZM49.882,24.518l-3.945-3.945L28.182,38.327l-9.3-9.3-3.945,3.945L28.182,46.218Z"/>
</svg>
