<svg xmlns="http://www.w3.org/2000/svg" viewBox="0 0 68.3 56.829">
  <defs>
    <style>
      .cls-1 {
        fill: #ef6433;
      }
    </style>
  </defs>
  <path id="Path_21" data-name="Path 21" class="cls-1" d="M68.3,56.829H63.086v-36.5H68.3ZM57.872,25.547H52.658V56.829h5.214ZM47.445,30.761H42.231V56.829h5.214ZM37.017,35.975H31.8V56.829h5.214ZM26.59,41.188H21.376V56.829H26.59ZM16.162,46.4H10.949V56.829h5.214ZM5.735,51.616H.521v5.214H5.735ZM51.616,0l-.782,5.214,5.214,1.043L44.838,13.034,40.667,8.342l-15.38,11.47-3.91-4.171L0,32.846l3.128,4.171L20.855,22.94l3.91,3.91,15.12-11.209,4.171,4.432,15.12-9.385-1.3,5.735,4.953,1.3,3.389-15.12Z"/>
</svg>
