<svg xmlns="http://www.w3.org/2000/svg" viewBox="0 0 65.576 65.576">
  <defs>
    <style>
      .cls-1 {
        fill: #ef6433;
      }
    </style>
  </defs>
  <path id="Path_55" data-name="Path 55" class="cls-1" d="M32.788,0A32.788,32.788,0,1,0,65.576,32.788,32.723,32.723,0,0,0,32.788,0ZM60.279,30.266H35.31V5.3A27.058,27.058,0,0,1,60.279,30.266ZM5.044,32.788A27.686,27.686,0,0,1,30.266,5.3V34.049L50.443,54.226a28.4,28.4,0,0,1-17.655,6.305A27.664,27.664,0,0,1,5.044,32.788Zm48.93,17.655L38.841,35.31H60.279A26.437,26.437,0,0,1,53.974,50.443Z" transform="translate(0 0)"/>
</svg>
