<svg xmlns="http://www.w3.org/2000/svg" viewBox="0 0 67.778 65.171">
  <defs>
    <style>
      .cls-1 {
        fill: #ef6433;
      }
    </style>
  </defs>
  <path id="Path_20" data-name="Path 20" class="cls-1" d="M53.441,41.71a3.91,3.91,0,1,1-3.91,3.91A4.009,4.009,0,0,1,53.441,41.71Zm-39.1,0a3.91,3.91,0,0,1,0,7.821,3.91,3.91,0,0,1,0-7.821ZM0,26.069v39.1H67.778v-39.1ZM62.564,54.744a5.229,5.229,0,0,0-5.214,5.214H10.427a5.229,5.229,0,0,0-5.214-5.214V36.5a5.229,5.229,0,0,0,5.214-5.214H57.351A5.229,5.229,0,0,0,62.564,36.5ZM33.889,39.1c2.868,0,5.214,2.868,5.214,6.517s-2.346,6.517-5.214,6.517-5.214-2.868-5.214-6.517S31.022,39.1,33.889,39.1m0-5.214c-5.735,0-10.427,5.214-10.427,11.731s4.692,11.731,10.427,11.731S44.317,52.137,44.317,45.62,39.624,33.889,33.889,33.889ZM46.923,13.034,33.889,0,20.855,13.034H31.282v7.821H36.5V13.034Z"/>
</svg>
