<svg xmlns="http://www.w3.org/2000/svg" viewBox="0 0 78.909 62">
  <defs>
    <style>
      .cls-1 {
        fill: #ef6433;
      }
    </style>
  </defs>
  <path id="Path_60" data-name="Path 60" class="cls-1" d="M76.091,47.909V62l-3.664-.845C43.4,53.545,3.382,53.545,2.818,53.545H0V47.909H2.818c1.409,0,33.818,0,62.282,5.636a4.239,4.239,0,0,1,3.945-2.818,2.541,2.541,0,0,1,1.409.282v-3.1ZM54.954,22.545a4.227,4.227,0,1,0,4.227-4.227A4.334,4.334,0,0,0,54.954,22.545ZM78.909,0V45.091H0V0H78.909ZM39.454,39.454H67.918a2.541,2.541,0,0,1-.282-1.409,4.334,4.334,0,0,1,4.227-4.227,2.541,2.541,0,0,1,1.409.282V10.991a2.541,2.541,0,0,1-1.409.282,4.334,4.334,0,0,1-4.227-4.227,2.541,2.541,0,0,1,.282-1.409H10.991a2.541,2.541,0,0,1,.282,1.409,4.334,4.334,0,0,1-4.227,4.227,2.541,2.541,0,0,1-1.409-.282V34.1a2.541,2.541,0,0,1,1.409-.282,4.334,4.334,0,0,1,4.227,4.227,2.541,2.541,0,0,1-.282,1.409ZM15.5,22.545a4.334,4.334,0,0,0,4.227,4.227,4.227,4.227,0,1,0,0-8.455A4.334,4.334,0,0,0,15.5,22.545Zm35.227,0A11.273,11.273,0,1,1,39.454,11.273,11.306,11.306,0,0,1,50.727,22.545Zm-5.636,0a5.636,5.636,0,1,0-5.636,5.636A5.653,5.653,0,0,0,45.091,22.545Z" transform="translate(0 0)"/>
</svg>
