<svg xmlns="http://www.w3.org/2000/svg" viewBox="0 0 67.281 67.287">
  <defs>
    <style>
      .cls-1 {
        fill: #fff;
      }
    </style>
  </defs>
  <path id="Path_56" data-name="Path 56" class="cls-1" d="M33.853,67.344a15.9,15.9,0,0,1-4.909-.517,7.5,7.5,0,0,1-6.2-5.167,7.633,7.633,0,0,1,1.809-8.009,7.856,7.856,0,0,0-11.11-11.11,7.633,7.633,0,0,1-8.009,1.809,7.928,7.928,0,0,1-5.167-6.2,32.477,32.477,0,0,1,.517-11.11C3.624,13.345,14.733,2.493,28.427.426h0a33.17,33.17,0,0,1,28.937,9.56,34.44,34.44,0,0,1,9.56,28.937C64.6,52.875,53.489,64.243,40.054,66.569A25.482,25.482,0,0,1,33.853,67.344Zm-14.727-32.3a13.112,13.112,0,0,1,9.3,3.876,12.791,12.791,0,0,1,0,18.344,2.916,2.916,0,0,0-.775,2.842,1.965,1.965,0,0,0,2.067,1.55,23.716,23.716,0,0,0,9.56-.258A28.433,28.433,0,0,0,54.005,13.345,27.981,27.981,0,0,0,29.46,5.335C17.834,7.144,8.533,16.445,5.949,28.072a22.591,22.591,0,0,0-.258,9.3,2.251,2.251,0,0,0,1.55,2.067,2.916,2.916,0,0,0,2.842-.775A12.911,12.911,0,0,1,19.126,35.048ZM15.509,20.579a5.167,5.167,0,1,1-5.167,5.167A5.183,5.183,0,0,1,15.509,20.579ZM28.427,10.244a5.167,5.167,0,1,1-5.167,5.167A5.183,5.183,0,0,1,28.427,10.244ZM51.68,33.5a5.167,5.167,0,1,1-5.167,5.167A5.183,5.183,0,0,1,51.68,33.5ZM46.513,15.412a5.167,5.167,0,1,1-5.167,5.167A5.183,5.183,0,0,1,46.513,15.412Zm-5.167,31a5.167,5.167,0,1,1-5.167,5.167A5.183,5.183,0,0,1,41.345,46.416Z" transform="translate(0.004 -0.057)"/>
</svg>
