<svg xmlns="http://www.w3.org/2000/svg" viewBox="0 0 65.116 59.69">
  <defs>
    <style>
      .cls-1 {
        fill: #ef6433;
      }
    </style>
  </defs>
  <path id="Path_32" data-name="Path 32" class="cls-1" d="M65.116,21.705H0V0H65.116ZM5.426,16.279H59.69V5.426H5.426Zm59.69,8.14H59.69V54.264H5.426V24.419H0V59.69H65.116ZM10.853,8.14a2.563,2.563,0,0,1,2.713,2.713,2.563,2.563,0,0,1-2.713,2.713A2.563,2.563,0,0,1,8.14,10.853,2.563,2.563,0,0,1,10.853,8.14Zm8.14,0a2.563,2.563,0,0,1,2.713,2.713,2.563,2.563,0,0,1-2.713,2.713,2.563,2.563,0,0,1-2.713-2.713A2.563,2.563,0,0,1,18.992,8.14Zm8.14,0a2.563,2.563,0,0,1,2.713,2.713,2.563,2.563,0,0,1-2.713,2.713,2.563,2.563,0,0,1-2.713-2.713A2.563,2.563,0,0,1,27.132,8.14Zm5.426,40.7H10.853V27.132H32.558ZM16.279,43.411H27.132V32.558H16.279ZM54.264,27.132H37.985v5.426H54.264Zm0,8.14H37.985V40.7H54.264Zm0,8.14H37.985v5.426H54.264Z"/>
</svg>
