<svg xmlns="http://www.w3.org/2000/svg" viewBox="0 0 101.231 72.308">
  <defs>
    <style>
      .cls-1 {
        fill: #ef6433;
      }
    </style>
  </defs>
  <path id="Path_58" data-name="Path 58" class="cls-1" d="M101.231,72.308H0V0H101.231Zm-94-7.231H94V7.231H7.231ZM63.27,45.193a5.18,5.18,0,0,0,1.808-3.977l.362-2.531,1.446-2.169a7.053,7.053,0,0,0,0-8.315l-1.446-2.169L65.077,23.5a6.9,6.9,0,0,0-5.785-5.785l-2.531-.362-2.169-1.446h0a7.053,7.053,0,0,0-8.315,0l-2.169,1.446-2.531.362A6.9,6.9,0,0,0,35.793,23.5l-.362,2.892-1.446,2.169a7.053,7.053,0,0,0,0,8.315l1.446,2.169.362,2.531A13.365,13.365,0,0,0,37.6,45.554l-8.677,8.677h7.231v7.231L47.723,49.893a8.509,8.509,0,0,0,2.892.723,8.509,8.509,0,0,0,2.892-.723L65.077,61.462V54.231h7.231ZM42.3,28.923l.362-4.338L47,24.223l3.615-2.531,3.615,2.531,4.338.362.362,4.338,2.531,3.615-2.531,3.615-.362,4.338-4.338.362-3.615,2.531L47,40.854l-4.338-.362L42.3,36.154l-2.531-3.615Z"/>
</svg>
