<svg xmlns="http://www.w3.org/2000/svg" viewBox="0 0 48.5 72.75">
  <defs>
    <style>
      .cls-1 {
        fill: #ef6433;
      }
    </style>
  </defs>
  <path id="Path_58" data-name="Path 58" class="cls-1" d="M39.406,72.75H9.094A8.931,8.931,0,0,1,0,63.656V9.094A8.931,8.931,0,0,1,9.094,0H39.406A8.931,8.931,0,0,1,48.5,9.094V63.656A8.931,8.931,0,0,1,39.406,72.75ZM9.094,6.063A2.864,2.864,0,0,0,6.063,9.094V63.656a2.864,2.864,0,0,0,3.031,3.031H39.406a2.864,2.864,0,0,0,3.031-3.031V9.094a2.864,2.864,0,0,0-3.031-3.031ZM24.25,57.594a3.031,3.031,0,0,1,0,6.063,3.031,3.031,0,0,1,0-6.062ZM13.034,41.831a6.169,6.169,0,0,1-4.547-1.819L10,38.5a4.343,4.343,0,0,0,3.031,1.212c.606,0,.909,0,1.213-.3s.3-.3.3-.606,0-.606-.3-.606a11.921,11.921,0,0,1-1.819-.606,13.129,13.129,0,0,1-1.516-.3c-.3,0-.606-.3-1.213-.606-.3-.3-.606-.606-.606-.909,0-.606,0-1.213,0-1.516A3.442,3.442,0,0,1,10,31.828a3.705,3.705,0,0,1,2.728-.909,6.092,6.092,0,0,1,3.941,1.212L15.459,33.95a4.889,4.889,0,0,0-2.728-.909c-.3,0-.909,0-.909.3-.3.3-.3.3-.3.606a1.114,1.114,0,0,0,.3.909c.3.3.909.3,1.819.606,1.213.3,2.122.606,2.425,1.212a2.985,2.985,0,0,1-.3,4.547A6.053,6.053,0,0,1,13.034,41.831Zm6.063,0V31.222h2.425l2.728,4.244,3.031-4.547h2.425V41.528H27.281V34.556l-3.031,4.85h0l-3.031-4.547v6.972Zm16.975,0a6.169,6.169,0,0,1-4.547-1.819L33.041,38.5a4.343,4.343,0,0,0,3.031,1.212c.606,0,.909,0,1.213-.3s.3-.3.3-.606,0-.606-.3-.606a11.921,11.921,0,0,1-1.819-.606,13.129,13.129,0,0,1-1.516-.3c-.3,0-.606-.606-1.212-.909s-.606-.606-.606-.909a1.822,1.822,0,0,1-.3-1.213,3.442,3.442,0,0,1,.909-2.425,3.705,3.705,0,0,1,2.728-.909,6.092,6.092,0,0,1,3.941,1.212L38.194,33.95a4.889,4.889,0,0,0-2.728-.909c-.3,0-.909,0-.909.3-.3.3-.3.3-.3.606a1.114,1.114,0,0,0,.3.909c.3.3.909.3,1.819.606,1.212.3,2.122.606,2.425,1.212a2.985,2.985,0,0,1-.3,4.547A3.917,3.917,0,0,1,36.072,41.831Z" transform="translate(0 0)"/>
</svg>
