<svg xmlns="http://www.w3.org/2000/svg" viewBox="0 0 72.992 57.351">
  <defs>
    <style>
      .cls-1 {
        fill: #ef6433;
      }
    </style>
  </defs>
  <path id="Path_18" data-name="Path 18" class="cls-1" d="M65.171,10.427H62.564V7.821A7.681,7.681,0,0,0,54.744,0H7.821A7.681,7.681,0,0,0,0,7.821V39.1a7.681,7.681,0,0,0,7.821,7.821h2.607V49.53a7.681,7.681,0,0,0,7.821,7.821H65.171a7.681,7.681,0,0,0,7.821-7.821V18.248A7.681,7.681,0,0,0,65.171,10.427Zm0,5.214a2.463,2.463,0,0,1,2.607,2.607v2.607H62.564V15.641ZM5.214,39.1V7.821A2.463,2.463,0,0,1,7.821,5.214H54.744a2.463,2.463,0,0,1,2.607,2.607v2.607H7.821v5.214h49.53V39.1a2.463,2.463,0,0,1-2.607,2.607H7.821A2.463,2.463,0,0,1,5.214,39.1ZM65.171,52.137H18.248a2.463,2.463,0,0,1-2.607-2.607V46.923h39.1A7.681,7.681,0,0,0,62.564,39.1V26.069h5.214V49.53A2.463,2.463,0,0,1,65.171,52.137Z"/>
</svg>
