<svg xmlns="http://www.w3.org/2000/svg" viewBox="0 0 67.6 52">
  <defs>
    <style>
      .cls-1 {
        fill: #ef6433;
      }
    </style>
  </defs>
  <path id="Path_54" data-name="Path 54" class="cls-1" d="M67.6,52H0V0H67.6ZM54.08,46.8H62.4V5.2H5.2V46.8h8.32a5.152,5.152,0,0,1,4.68-2.6,5.461,5.461,0,0,1,4.68,2.6h22.1a5.152,5.152,0,0,1,4.68-2.6A5.033,5.033,0,0,1,54.08,46.8ZM30.68,28.34A11.581,11.581,0,0,0,33.8,20.8a10.4,10.4,0,1,0-20.8,0,11.581,11.581,0,0,0,3.12,7.54A13.054,13.054,0,0,0,10.4,39h5.2a7.661,7.661,0,0,1,7.8-7.8A7.661,7.661,0,0,1,31.2,39h5.2A13.054,13.054,0,0,0,30.68,28.34ZM18.2,20.8A5.2,5.2,0,1,1,23.4,26,5.215,5.215,0,0,1,18.2,20.8Zm39-2.6H41.6v5.2H57.2Zm0,10.4H41.6v5.2H57.2Z"/>
</svg>
