<svg id="Support-icon" xmlns="http://www.w3.org/2000/svg" width="82.685" height="85.993" viewBox="0 0 82.685 85.993">
  <path id="Path_9" data-name="Path 9" d="M76.07,33.074h0C74.086,14.553,58.541,0,39.689,0A36.277,36.277,0,0,0,3.307,36.382v4.63A13.223,13.223,0,0,0,0,49.611,12.566,12.566,0,0,0,7.938,61.518a32.928,32.928,0,0,0,58.21,11.245h0a12.886,12.886,0,0,0,12.9-10.584,6.248,6.248,0,0,0,3.638-5.953V39.689A6.25,6.25,0,0,0,76.07,33.074Zm0,6.615V56.226H72.763V39.689ZM39.689,6.615A29.806,29.806,0,0,1,68.794,30.759a27.554,27.554,0,0,0-4.961-1.323c-5.623-.661-10.914-1.323-10.914-12.9H46.3c0,7.938-2.977,10.253-5.953,11.576-3.969,1.654-9.261,1.654-14.553,1.654-4.3,0-8.6,0-12.237.992a11.008,11.008,0,0,0-3.307,1.984A29.424,29.424,0,0,1,39.689,6.615ZM66.148,66.148H45.973a4.974,4.974,0,0,0-4.63-3.307,4.961,4.961,0,0,0,0,9.922H57.218a25.654,25.654,0,0,1-17.529,6.615,26.842,26.842,0,0,1-25.8-20.837l-.661-1.984L11.245,55.9a6.428,6.428,0,0,1-.331-12.237L13.23,43V40.35c0-1.984.661-2.646,2.315-3.307,2.646-.661,6.284-.661,10.253-.661,5.623,0,12.237,0,17.529-2.315a19.033,19.033,0,0,0,6.284-4.961c3.638,5.623,9.922,6.615,13.56,6.946a7.9,7.9,0,0,1,2.977.661V62.841h5.623A6.032,6.032,0,0,1,66.148,66.148Z" fill="#ef6433"/>
  <ellipse id="Ellipse_5" data-name="Ellipse 5" cx="4.961" cy="4.961" rx="4.961" ry="4.961" transform="translate(46.304 42.996)" fill="#ef6433"/>
  <ellipse id="Ellipse_6" data-name="Ellipse 6" cx="4.961" cy="4.961" rx="4.961" ry="4.961" transform="translate(23.152 42.996)" fill="#ef6433"/>
</svg>
