<svg xmlns="http://www.w3.org/2000/svg" viewBox="0 0 34.709 34.93">
  <defs>
    <style>
      .cls-1 {
        fill: #ef6433;
      }
    </style>
  </defs>
  <path id="Фигура_33" data-name="Фигура 33" class="cls-1" d="M0,17.464A17.355,17.355,0,1,1,17.352,34.93,17.429,17.429,0,0,1,0,17.464Zm7.484-6.09V23.56A3.83,3.83,0,0,0,11.3,27.4H23.407a3.83,3.83,0,0,0,3.816-3.838V11.373a3.83,3.83,0,0,0-3.816-3.84H11.3A3.83,3.83,0,0,0,7.484,11.373ZM11.3,25.46a1.894,1.894,0,0,1-1.891-1.9V15.426h2.946a5.4,5.4,0,1,0,10,0H25.3V23.56a1.894,1.894,0,0,1-1.891,1.9Zm2.58-8a3.5,3.5,0,0,1,.659-2.038,3.454,3.454,0,0,1,5.635,0,3.482,3.482,0,1,1-6.294,2.038Zm7.714-7.633L24.5,9.82h.437v3.366l-3.335.011Z" transform="translate(0 0)"/>
</svg>
