<svg xmlns="http://www.w3.org/2000/svg" viewBox="0 0 34 34">
  <defs>
    <style>
      .cls-1 {
        fill: #707070;
      }
    </style>
  </defs>
  <path id="Фигура_47" data-name="Фигура 47" class="cls-1" d="M721,644a17,17,0,1,0,17,17,17,17,0,0,0-17-17Zm0,5.971,10.06,6.273H710.94Zm10.185,16.29h0a1.821,1.821,0,0,1-1.822,1.822H712.637a1.822,1.822,0,0,1-1.822-1.822v-9.618a1.824,1.824,0,0,1,.029-.311l9.612,5.994c.012.007.024.012.036.019l.039.02a1,1,0,0,0,.209.081l.022.005a1.066,1.066,0,0,0,.237.03h0a1.032,1.032,0,0,0,.237-.03l.022-.005a1,1,0,0,0,.209-.081l.039-.02c.012-.007.024-.012.036-.019l9.612-5.994a1.8,1.8,0,0,1,.029.311Zm0,0" transform="translate(-704 -644)"/>
</svg>
