<svg xmlns="http://www.w3.org/2000/svg" viewBox="0 0 35.009 35">
  <defs>
    <style>
      .cls-1 {
        fill: #707070;
      }
    </style>
  </defs>
  <path id="Фигура_44" data-name="Фигура 44" class="cls-1" d="M595.786,644a17.206,17.206,0,0,0-14.938,25.754l-2.826,8.477a.582.582,0,0,0,.553.769.547.547,0,0,0,.148-.02l9.257-2.435A17.21,17.21,0,1,0,595.786,644Zm10.741,25.022-1.025,1.026A5.991,5.991,0,0,1,601.208,672c-2.094,0-4.354-1.193-6.712-3.552l-5.946-5.947a11.731,11.731,0,0,1-3.4-5.369,5.776,5.776,0,0,1,1.8-5.634l1.026-1.025a2.211,2.211,0,0,1,2.556-.384c1.552.82,3.162,3.515,3.339,3.819a2.154,2.154,0,0,1,.282,1.647,1.524,1.524,0,0,1-.692.906c-.47.393-1.023.886-1.122,1.008a1.577,1.577,0,0,0,.239,2.31l4.647,4.646a1.573,1.573,0,0,0,2.319.233c.117-.094.607-.647,1-1.116a1.528,1.528,0,0,1,1.362-.755,2.424,2.424,0,0,1,1.185.339c.308.182,3,1.792,3.823,3.343a2.159,2.159,0,0,1-.384,2.555Zm0,0" transform="translate(-577.991 -644)"/>
</svg>
