<svg xmlns="http://www.w3.org/2000/svg" viewBox="0 0 33.929 34.012">
  <defs>
    <style>
      .cls-1 {
        fill: #ef6433;
      }
    </style>
  </defs>
  <path id="Фигура_45" data-name="Фигура 45" class="cls-1" d="M0,17A16.965,16.965,0,1,1,16.958,34.012,16.987,16.987,0,0,1,0,17ZM21.568,27.059a5.6,5.6,0,0,0,4.606-8.738,10.069,10.069,0,0,0,.082-1.268,9.332,9.332,0,0,0-9.348-9.32,9.045,9.045,0,0,0-1.5.125,5.566,5.566,0,0,0-8.622,4.682,5.626,5.626,0,0,0,.9,3.05,9.909,9.909,0,0,0-.113,1.463,9.336,9.336,0,0,0,9.351,9.321,9.149,9.149,0,0,0,1.7-.157A5.611,5.611,0,0,0,21.568,27.059ZM12.155,22.22c-1.429-1.339-.849-2.864.31-2.936s1.853,1.308,2.465,1.7,2.972,1.267,4.2-.155c1.354-1.546-.89-2.345-2.536-2.6-2.362-.343-5.333-1.618-5.106-4.139a4.331,4.331,0,0,1,4.133-3.986,6.932,6.932,0,0,1,5.518,1.515c1.511,1.3.692,2.74-.27,2.865s-2.041-2.139-4.162-2.168c-2.194-.032-3.666,2.282-.973,2.936s5.6.935,6.646,3.4-1.625,5.107-4.6,5.264c-.284.015-.554.022-.811.022A6.235,6.235,0,0,1,12.155,22.22Z" transform="translate(0 0)"/>
</svg>
