<svg xmlns="http://www.w3.org/2000/svg" viewBox="0 0 34 34">
  <defs>
    <style>
      .cls-1 {
        fill: #ef6433;
      }
    </style>
  </defs>
  <path id="Фигура_46" data-name="Фигура 46" class="cls-1" d="M0,17A17,17,0,1,1,17,34,17,17,0,0,1,0,17Zm16.74,5.693,5.036,3.657a.59.59,0,0,0,.925-.357L26.39,8.249a.591.591,0,0,0-.79-.671L5.044,15.508a.591.591,0,0,0,.005,1.1l5.009,1.869L12,24.717a.59.59,0,0,0,.936.282l2.792-2.276a.834.834,0,0,1,1.015-.029Zm-4.428-.379L11.254,18.6a.986.986,0,0,1,.431-1.109l9.788-6.029a.171.171,0,0,1,.206.27L13.6,19.237a1.678,1.678,0,0,0-.518,1l-.275,2.039a.253.253,0,0,1-.494.036Z" transform="translate(0)"/>
</svg>
