<svg xmlns="http://www.w3.org/2000/svg" viewBox="0 0 34.704 34.927">
  <defs>
    <style>
      .cls-1 {
        fill: #707070;
      }
    </style>
  </defs>
  <path id="Фигура_34" data-name="Фигура 34" class="cls-1" d="M509.855,644.317a17.463,17.463,0,1,0,17.359,17.456,17.41,17.41,0,0,0-17.359-17.456Zm8.643,13.547.011.554a12.118,12.118,0,0,1-12.159,12.234,11.953,11.953,0,0,1-6.544-1.94,7.715,7.715,0,0,0,1.017.065,8.546,8.546,0,0,0,5.305-1.844,4.283,4.283,0,0,1-3.991-2.985,3.927,3.927,0,0,0,.805.076,4.281,4.281,0,0,0,1.122-.15,4.293,4.293,0,0,1-3.421-4.21v-.055a4.188,4.188,0,0,0,1.927.535,4.311,4.311,0,0,1-1.312-5.735,12.088,12.088,0,0,0,8.8,4.488,4.152,4.152,0,0,1-.106-.982,4.271,4.271,0,0,1,7.39-2.941,8.574,8.574,0,0,0,2.711-1.034,4.273,4.273,0,0,1-1.884,2.376,8.55,8.55,0,0,0,2.456-.682,8.825,8.825,0,0,1-2.128,2.229Zm0,0" transform="translate(-492.51 -644.316)"/>
</svg>
