<svg xmlns="http://www.w3.org/2000/svg" viewBox="0 0 35 35">
  <defs>
    <style>
      .cls-1 {
        fill: #707070;
      }
    </style>
  </defs>
  <path id="Фигура_43" data-name="Фигура 43" class="cls-1" d="M552.5,644A17.5,17.5,0,1,0,570,661.5,17.5,17.5,0,0,0,552.5,644Zm-.143,6.583c.169-.154.287-.175.871-.157.3.011.752.046,1,.075a9.986,9.986,0,0,1,3.32.984,9.025,9.025,0,0,1,2.673,1.928,8.684,8.684,0,0,1,1.826,2.507,11.967,11.967,0,0,1,1.164,4.9c.024.626.008.766-.136.944a.663.663,0,0,1-1.074-.1,1.721,1.721,0,0,1-.1-.741,13.155,13.155,0,0,0-.2-1.859,8.56,8.56,0,0,0-3.324-5.522,8.722,8.722,0,0,0-5.036-1.777c-.68-.039-.8-.064-.953-.182A.7.7,0,0,1,552.357,650.582Zm4.269,4.607a6.827,6.827,0,0,0-2.754-.826.911.911,0,0,1-.677-.254.65.65,0,0,1-.053-.808c.185-.29.472-.336,1.328-.208a6.93,6.93,0,0,1,4.961,2.965,7.113,7.113,0,0,1,1.139,3.169,5.917,5.917,0,0,1,0,1.331.82.82,0,0,1-.327.354.8.8,0,0,1-.6-.022c-.276-.139-.358-.361-.358-.962a5.724,5.724,0,0,0-.656-2.661A5.434,5.434,0,0,0,556.626,655.189Zm1.211,4.767a.693.693,0,0,1-.839.018c-.171-.129-.226-.265-.265-.633a3.4,3.4,0,0,0-.28-1.151,2.029,2.029,0,0,0-1.808-1.141c-.441-.053-.573-.1-.717-.271a.667.667,0,0,1,.2-1,.772.772,0,0,1,.494-.057,4.836,4.836,0,0,1,.609.075,3.421,3.421,0,0,1,1.708.851,3.537,3.537,0,0,1,1.064,2.217C558.1,659.5,558.062,659.749,557.837,659.956Zm5.351,9.4a4.678,4.678,0,0,1-.568.954,8.233,8.233,0,0,1-1.449,1.557,2.86,2.86,0,0,1-1.723.712,2.514,2.514,0,0,1-1.35-.283q-.362-.149-.717-.306l-.128-.056-.278-.125-.15-.068-.267-.125-.152-.073-.265-.129-.144-.071-.271-.137-.119-.061-.292-.152-.015-.008q-.543-.289-1.068-.6l-.055-.032-.3-.18-.083-.05-.291-.18-.083-.052-.293-.187-.068-.044q-.154-.1-.306-.2l-.027-.019a28.223,28.223,0,0,1-6.86-6.55,26.634,26.634,0,0,1-3.8-6.9c-.505-1.392-.53-2-.115-2.708a8.034,8.034,0,0,1,1.5-1.458,5.177,5.177,0,0,1,1.691-1.012,1.941,1.941,0,0,1,.9.082,2.453,2.453,0,0,1,.43.215,17.359,17.359,0,0,1,3.195,4.081,2.28,2.28,0,0,1,.362,1.581c-.114.408-.3.622-1.153,1.305a6.316,6.316,0,0,0-.709.633,1.66,1.66,0,0,0-.233.808,6.026,6.026,0,0,0,.9,2.514,10.772,10.772,0,0,0,1.8,2.114,9.936,9.936,0,0,0,2.36,1.666c1.05.522,1.691.654,2.16.436l.015-.007h0a1.685,1.685,0,0,0,.267-.149c.036-.032.312-.368.613-.74.453-.57.633-.767.88-.891a1.816,1.816,0,0,1,.231-.094,1.921,1.921,0,0,1,1.54.14c.395.2,1.254.737,1.809,1.123a26.629,26.629,0,0,1,2.5,2.038,1.468,1.468,0,0,1,.333.873A2.015,2.015,0,0,1,563.188,669.351Z" transform="translate(-535 -644)"/>
</svg>
