<svg xmlns="http://www.w3.org/2000/svg" viewBox="0 0 32.69 32.9">
  <defs>
    <style>
      .cls-1 {
        fill: #ef6433;
      }
    </style>
  </defs>
  <path id="Фигура_25" data-name="Фигура 25" class="cls-1" d="M385.414,644.356A16.45,16.45,0,1,0,401.759,660.8,16.4,16.4,0,0,0,385.414,644.356Zm9.984,21.988a.786.786,0,0,1-.215.142,1.562,1.562,0,0,1-.658.148c-.932-.007-1.858,0-2.79,0a2.153,2.153,0,0,1-1.545-.727c-.389-.385-.741-.81-1.111-1.214a3.415,3.415,0,0,0-.658-.6.6.6,0,0,0-.836.042,1.012,1.012,0,0,0-.141.2,3.081,3.081,0,0,0-.306,1.388,1.094,1.094,0,0,1-.176.648c-.141.184-.383.252-.782.271a7.463,7.463,0,0,1-4.291-.951c-.185-.116-.364-.231-.536-.353l0,0a10.119,10.119,0,0,1-2.245-2.3,36.188,36.188,0,0,1-3.748-6.728c-.236-.526-.057-.81.523-.822.951-.02,1.909-.013,2.861,0a.838.838,0,0,1,.817.578,18.728,18.728,0,0,0,1.916,3.6,3.3,3.3,0,0,0,.8.906c.345.238.6.154.766-.231a2.949,2.949,0,0,0,.179-.874,12.092,12.092,0,0,0-.045-2.545,1.127,1.127,0,0,0-.958-1.06c-.294-.059-.23-.167-.1-.322a1.359,1.359,0,0,1,.907-.45,10.394,10.394,0,0,1,3.339.033c.53.1.683.308.766.848a19.753,19.753,0,0,1-.032,2.037v1.548c0,.019,0,.038,0,.056,0,.063.006.132.013.195.045.334.077.713.441.842a.513.513,0,0,0,.121.025c.266.015.452-.239.62-.43a13.459,13.459,0,0,0,2.133-3.553c.115-.264.217-.528.332-.8a.619.619,0,0,1,.638-.418c1.111.007,2.216,0,3.327.007a1.335,1.335,0,0,1,.351.051c.447.11.562.308.434.759a5.8,5.8,0,0,1-.849,1.651c-.075.113-.151.224-.228.336-.319.46-.66.906-1,1.352-.222.292-.444.585-.66.882-.747,1.028-.728,1.285.191,2.152a16.225,16.225,0,0,1,2.152,2.3,3.121,3.121,0,0,1,.389.681A.587.587,0,0,1,395.4,666.344Z" transform="translate(-369.068 -644.356)"/>
</svg>
