<svg xmlns="http://www.w3.org/2000/svg" viewBox="0 0 58 70">
  <defs>
    <style>
      .cls-1 {
        fill: #fff;
      }
    </style>
  </defs>
  <path id="ic_cake_24px" class="cls-1" d="M32,19.091a6.4,6.4,0,0,0,6.444-6.364A6,6,0,0,0,37.51,9.45L32,0,26.49,9.45a6,6,0,0,0-.934,3.277A6.423,6.423,0,0,0,32,19.091ZM46.822,50.877l-3.448-3.4-3.48,3.4a11.522,11.522,0,0,1-15.757,0l-3.448-3.4-3.512,3.4a11.139,11.139,0,0,1-7.862,3.214A11.3,11.3,0,0,1,3,52.15V66.818A3.212,3.212,0,0,0,6.222,70H57.778A3.212,3.212,0,0,0,61,66.818V52.15a11.3,11.3,0,0,1-6.316,1.941A11.139,11.139,0,0,1,46.822,50.877Zm4.511-22.241H35.222V22.273H28.778v6.364H12.667A9.594,9.594,0,0,0,3,38.182v4.9A6.328,6.328,0,0,0,13.762,47.5l6.9-6.777L27.521,47.5a6.522,6.522,0,0,0,8.926,0l6.9-6.777L50.206,47.5a6.328,6.328,0,0,0,10.762-4.423v-4.9A9.546,9.546,0,0,0,51.333,28.636Z" transform="translate(-3)"/>
</svg>
