<?xml version="1.0" encoding="utf-8"?>
<!-- Generator: Adobe Illustrator 23.0.1, SVG Export Plug-In . SVG Version: 6.00 Build 0)  -->
<svg version="1.1" id="Слой_1" xmlns="http://www.w3.org/2000/svg" xmlns:xlink="http://www.w3.org/1999/xlink" x="0px" y="0px"
	 viewBox="0 0 171 77" style="enable-background:new 0 0 171 77;" xml:space="preserve">
<style type="text/css">
	.st0{fill:#EF6433;}
</style>
<g id="Gift" transform="translate(-1275 -1151)">
	<text transform="matrix(1 0 0 1 1266.4969 1287)" style="fill:#707070; font-family:'Helvetica-Bold'; font-size:18px;">Получатель сам решает </text>
	<text transform="matrix(1 0 0 1 1265.429 1309)" style="fill:#707070; font-family:'Helvetica-Bold'; font-size:18px;">какой подарок выбрать</text>
	<path id="Path_1" class="st0" d="M1424,1174.6c2.1-1.2,4.1-2.1,5-2.9c2-1.9,3-4.6,2.9-7.4c-0.1-2.7-1.1-5.3-2.9-7.4
		c-1.9-2-4.6-3.1-7.4-2.9l0,0c-2.7,0.1-5.3,1.1-7.4,2.9c-1.8,1.8-4.1,7.1-5.9,11.8c-1.8-4.7-4.1-10-5.9-11.8
		c-4.2-3.8-10.6-3.8-14.7,0c-3.8,4.2-3.8,10.6,0,14.7c0.9,0.9,2.9,1.8,5,2.9H1376v47.1h64.7v-47.1H1424V1174.6z M1434.9,1195.2
		h-23.5v-14.7h23.5V1195.2z M1418.4,1161.1c0.9-0.7,2.1-1.1,3.2-1.2c1.2,0.1,2.3,0.5,3.2,1.2c0.7,0.9,1.1,2.1,1.2,3.2
		c-0.1,1.2-0.5,2.3-1.2,3.2c-1.2,1.2-6.2,3.2-11.5,5.3C1415.2,1167.2,1417.5,1162.2,1418.4,1161.1z M1390.7,1164.3
		c0.1-1.2,0.5-2.3,1.2-3.2c0.9-0.7,2.1-1.1,3.2-1.2l0,0c1.2,0.1,2.3,0.5,3.2,1.2c1.2,1.2,3.2,6.2,5.3,11.5c-5.6-1.8-10.6-4.1-11.8-5
		C1391.2,1166.6,1390.8,1165.5,1390.7,1164.3z M1405.5,1180.5v14.7H1382v-14.7H1405.5z M1381.9,1201.1h23.5v14.7h-23.5V1201.1z
		 M1411.3,1215.8v-14.7h23.5v14.7H1411.3z"/>
	<g id="Group_48" transform="translate(1316.175 1151)">
		<path id="Path_2" class="st0" d="M12,20.6c2.1-1.2,4.1-2.1,5-2.9c2-1.9,3-4.6,2.9-7.4C19.8,7.6,18.8,5,17,2.9
			c-1.9-2-4.6-3.1-7.4-2.9l0,0C6.9,0.1,4.3,1.1,2.2,2.9C0.4,4.7-1.9,10-3.7,14.7C-5.4,10-7.8,4.7-9.5,2.9c-4.2-3.8-10.6-3.8-14.7,0
			c-3.8,4.2-3.8,10.6,0,14.7c0.9,0.9,2.9,1.8,5,2.9H-36v53h64.7v-53H12V20.6z M6.4,7.1C7.3,6.4,8.5,6,9.6,5.9
			c1.2,0.1,2.3,0.5,3.2,1.2c0.7,0.9,1.1,2.1,1.2,3.2c-0.1,1.2-0.5,2.3-1.2,3.2c-1.2,1.2-6.2,3.2-11.5,5.3C3.1,13.2,5.5,8.2,6.4,7.1z
			 M-21.3,10.3c0.1-1.2,0.5-2.3,1.2-3.2c0.9-0.7,2.1-1.1,3.2-1.2l0,0c1.2,0.1,2.3,0.5,3.3,1.2c1.2,1.2,3.2,6.2,5.3,11.5
			c-5.6-1.8-10.6-4.1-11.8-5C-20.8,12.6-21.2,11.5-21.3,10.3z M22.9,67.7h-53V26.5h53V67.7z"/>
		<path id="Path_3" class="st0" d="M-3.6,58.9c0,0,14.7-8.8,14.7-16.2c0-4.1-3.3-7.4-7.4-7.4s-7.4,3.3-7.4,7.4c0-4-3.2-7.3-7.2-7.4
			H-11c-4,0-7.3,3.2-7.4,7.2v0.1C-18.3,50-3.6,58.9-3.6,58.9z"/>
	</g>
</g>
</svg>
