<svg id="Group_49" data-name="Group 49" xmlns="http://www.w3.org/2000/svg" viewBox="0 0 70.626 72.098">
  <defs>
    <style>
      .cls-1 {
        fill: #ef6433;
      }
    </style>
  </defs>
  <path id="Path_5" data-name="Path 5" class="cls-1" d="M29.657,52.381l2.354-3.531c1.766-2.354,15.3-22.365,15.3-31.193a17.657,17.657,0,1,0-35.313,0C12,26.485,25.537,46.5,27.3,48.85Zm0-46.5A11.806,11.806,0,0,1,41.428,17.657c0,4.414-6.474,15.891-11.771,24.131-5.3-8.24-11.771-19.716-11.771-24.131A11.806,11.806,0,0,1,29.657,5.886Z" transform="translate(23.313)"/>
  <ellipse id="Ellipse_4" data-name="Ellipse 4" class="cls-1" cx="4.414" cy="4.414" rx="4.414" ry="4.414" transform="translate(48.555 13.242)"/>
  <path id="Path_6" data-name="Path 6" class="cls-1" d="M64.741,53.1l-14.714,6.18v-5L45.613,48.1a16.428,16.428,0,0,1-1.471-2.354V59.284L26.485,52.515V9.257l3.237,1.177a31.041,31.041,0,0,1,1.471-5.591L23.542,1.9,0,11.905v56.5L23.542,58.4l23.542,8.828L70.626,57.224v-25.6a116.9,116.9,0,0,1-5.886,10.3ZM5.886,16.025,20.6,9.845V53.4L5.886,59.578Z" transform="translate(0 3.691)"/>
</svg>
