<svg xmlns="http://www.w3.org/2000/svg" viewBox="0 0 99.081 55">
  <defs>
    <style>
      .cls-1 {
        fill: #fff;
      }
    </style>
  </defs>
  <g id="Icons" transform="translate(-1330.182 -4087)">
    <path id="ic_phone_android_24px" class="cls-1" d="M28,1H11.273C7.8,1,5,4.35,5,8.5v40C5,52.65,7.8,56,11.273,56H28c3.471,0,6.273-3.35,6.273-7.5V8.5C34.273,4.35,31.471,1,28,1ZM23.818,51H15.455V48.5h8.364Zm6.8-7.5H8.659V8.5H30.614Z" transform="translate(1325.182 4086)"/>
    <path id="ic_redeem_24px" class="cls-1" d="M40.937,10.653H36.221A6.474,6.474,0,0,0,24.713,4.92L23.632,6.37,22.55,4.9a6.476,6.476,0,0,0-11.508,5.754H6.326a4.293,4.293,0,0,0-4.3,4.326L2,38.774A4.311,4.311,0,0,0,6.326,43.1H40.937a4.311,4.311,0,0,0,4.326-4.326V14.979A4.311,4.311,0,0,0,40.937,10.653ZM30.121,6.326a2.163,2.163,0,1,1-2.163,2.163A2.17,2.17,0,0,1,30.121,6.326Zm-12.979,0a2.163,2.163,0,1,1-2.163,2.163A2.17,2.17,0,0,1,17.142,6.326ZM40.937,38.774H6.326V34.447H40.937Zm0-10.816H6.326V14.979H17.315l-4.5,6.122,3.5,2.531,5.148-7.009,2.163-2.942,2.163,2.942,5.148,7.009,3.5-2.531-4.5-6.122H40.937Z" transform="translate(1384 4092)"/>
  </g>
</svg>
