<?xml version="1.0" encoding="utf-8"?>
<!-- Generator: Adobe Illustrator 23.0.1, SVG Export Plug-In . SVG Version: 6.00 Build 0)  -->
<svg version="1.1" id="Слой_1" xmlns="http://www.w3.org/2000/svg" xmlns:xlink="http://www.w3.org/1999/xlink" x="0px" y="0px"
	 viewBox="0 0 77 77" style="enable-background:new 0 0 77 77;" xml:space="preserve">
<style type="text/css">
	.st0{fill:#EF6433;}
	.st1{opacity:0.496;fill:#EF6433;enable-background:new    ;}
	.st2{fill:#FFFFFF;}
</style>
<g id="Play_Icon" transform="translate(115.696 115.696)">
	<path id="Play-blured2" class="st0" d="M-77.2-115.7c-21.2,0-38.5,17.2-38.5,38.5s17.2,38.5,38.5,38.5s38.5-17.2,38.5-38.5l0,0
		C-38.8-98.5-56-115.7-77.2-115.7z M-84.9-59.9v-34.6l23.1,17.3L-84.9-59.9z"/>
	<path id="Play-blured1" class="st1" d="M-77.2-115.7c-21.2,0-38.5,17.2-38.5,38.5s17.2,38.5,38.5,38.5s38.5-17.2,38.5-38.5l0,0
		C-38.8-98.5-56-115.7-77.2-115.7z M-84.9-59.9v-34.6l23.1,17.3L-84.9-59.9z"/>
	<path id="Play-icon" class="st2" d="M-77.2-115.7c-21.2,0-38.5,17.2-38.5,38.5s17.2,38.5,38.5,38.5s38.5-17.2,38.5-38.5l0,0
		C-38.8-98.5-56-115.7-77.2-115.7z M-84.9-59.9v-34.6l23.1,17.3L-84.9-59.9z"/>
</g>
</svg>
